<?xml version="1.0" encoding="UTF-8"?>
<svg width="385px" height="232px" viewBox="0 0 385 232" version="1.1" xmlns="http://www.w3.org/2000/svg" xmlns:xlink="http://www.w3.org/1999/xlink">
    <!-- Generator: Sketch 43.2 (39069) - http://www.bohemiancoding.com/sketch -->
    <title>Group</title>
    <desc>Created with Sketch.</desc>
    <defs>
        <rect id="path-1" x="26" y="82" width="383" height="230" rx="14"></rect>
        <linearGradient x1="50%" y1="100%" x2="50%" y2="-75.5510475%" id="linearGradient-3">
            <stop stop-color="#FFFFFF" offset="0%"></stop>
            <stop stop-color="#C8E0F2" offset="100%"></stop>
        </linearGradient>
        <linearGradient x1="50%" y1="11.1304335%" x2="50%" y2="132.166223%" id="linearGradient-4">
            <stop stop-color="#FFFFFF" offset="0%"></stop>
            <stop stop-color="#FFEFEF" offset="100%"></stop>
        </linearGradient>
    </defs>
    <g id="Page-1" stroke="none" stroke-width="1" fill="none" fill-rule="evenodd">
        <g id="Group" transform="translate(-25.000000, -81.000000)">
            <rect id="Rectangle-2-Copy" x="0" y="0" width="429" height="434"></rect>
            <mask id="mask-2" fill="white">
                <use xlink:href="#path-1"></use>
            </mask>
            <use id="Path" stroke="#E2E2E2" fill="#FFFFFF" xlink:href="#path-1"></use>
            <path d="M21.4867941,86 L411.425283,86" id="Stroke-28" stroke="#FF0000" stroke-width="12" stroke-linecap="round" mask="url(#mask-2)"></path>
            <rect id="Rectangle" fill="url(#linearGradient-3)" mask="url(#mask-2)" x="16.0519481" y="80" width="406.875325" height="86"></rect>
            <rect id="Rectangle-Copy" fill="url(#linearGradient-4)" mask="url(#mask-2)" x="16.0519481" y="213" width="406.875325" height="99"></rect>
            <text id="Nació-en:-Santiago-P" mask="url(#mask-2)" font-family="HelveticaNeue, Helvetica Neue" font-size="11" font-weight="normal" fill="#4A4A4A">
                <tspan x="43.9064935" y="191">Nació en: </tspan>
                <tspan x="93.6154935" y="191" font-family="HelveticaNeue-Bold, Helvetica Neue" font-weight="bold">Santiago</tspan>
                <tspan x="140.057494" y="191"></tspan>
                <tspan x="43.9064935" y="204">Profesión: </tspan>
                <tspan x="96.6624935" y="204" font-family="HelveticaNeue-Bold, Helvetica Neue" font-weight="bold">Tecnólogo Médico</tspan>
                <tspan x="194.199494" y="204"></tspan>
                <tspan x="43.9064935" y="217">Inscrito en el Registro de Discapacidad |</tspan>
                <tspan x="242.126494" y="217" font-family="HelveticaNeue-Bold, Helvetica Neue" font-weight="bold"> </tspan>
                <tspan x="43.9064935" y="230" font-family="HelveticaNeue-Bold, Helvetica Neue" font-weight="bold">Donante</tspan>
            </text>
            <text id="IDCHL10000000000017&lt;" mask="url(#mask-2)" font-family="Ayuthaya" font-size="12" font-weight="normal" line-spacing="17" letter-spacing="2.70000005" fill="#8A8A8A">
                <tspan x="43.9064935" y="255">IDCHL10000000000017&lt;&lt;&lt;&lt;&lt;&lt;&lt;&lt;&lt;&lt;&lt;&lt;&lt;&lt;&lt;&lt;</tspan>
                <tspan x="43.9064935" y="272">83465253F23763CHL1234567723&lt;K&lt;2EE12</tspan>
                <tspan x="43.9064935" y="289">VIDAL&lt;FUENTES&lt;ROBERTO&lt;ALEJANDRO&lt;898</tspan>
                <tspan x="390.406495" y="289"></tspan>
            </text>
            <g id="qr-code-(1)" mask="url(#mask-2)" fill-rule="nonzero" fill="#000000">
                <g transform="translate(44.901299, 100.000000)">
                    <rect id="Rectangle-path" x="5.76987013" y="5.8" width="5.76987013" height="5.8"></rect>
                    <path d="M40.3890909,0 L40.3890909,2.9 L37.5041558,2.9 L37.5041558,5.8 L40.3890909,5.8 L40.3890909,17.4 L43.274026,17.4 L43.274026,20.3 L40.3890909,20.3 L40.3890909,23.2 L43.274026,23.2 L46.158961,23.2 L46.158961,17.4 L54.8137662,17.4 L54.8137662,20.3 L57.6987013,20.3 L57.6987013,17.4 L57.6987013,0 L40.3890909,0 Z M54.8137662,14.5 L43.274026,14.5 L43.274026,2.9 L54.8137662,2.9 L54.8137662,14.5 Z" id="Shape"></path>
                    <rect id="Rectangle-path" x="46.158961" y="5.8" width="5.76987013" height="5.8"></rect>
                    <rect id="Rectangle-path" x="5.76987013" y="46.4" width="5.76987013" height="5.8"></rect>
                    <rect id="Rectangle-path" x="40.3890909" y="40.6" width="2.88493506" height="2.9"></rect>
                    <rect id="Rectangle-path" x="25.9644156" y="55.1" width="2.88493506" height="2.9"></rect>
                    <rect id="Rectangle-path" x="28.8493506" y="43.5" width="2.88493506" height="2.9"></rect>
                    <rect id="Rectangle-path" x="28.8493506" y="49.3" width="2.88493506" height="2.9"></rect>
                    <rect id="Rectangle-path" x="54.8137662" y="34.8" width="2.88493506" height="2.9"></rect>
                    <rect id="Rectangle-path" x="0" y="34.8" width="2.88493506" height="2.9"></rect>
                    <rect id="Rectangle-path" x="0" y="20.3" width="2.88493506" height="2.9"></rect>
                    <polygon id="Shape" points="31.7342857 2.9 31.7342857 5.8 25.9644156 5.8 25.9644156 8.7 34.6192208 8.7 34.6192208 5.8 34.6192208 2.9"></polygon>
                    <path d="M54.8137662,23.2 L54.8137662,26.1 L49.0438961,26.1 L49.0438961,29 L40.3890909,29 L40.3890909,26.1 L37.5041558,26.1 L37.5041558,29 L31.7342857,29 L31.7342857,31.9 L40.3890909,31.9 L40.3890909,34.8 L34.6192208,34.8 L31.7342857,34.8 L31.7342857,31.9 L28.8493506,31.9 L28.8493506,34.8 L25.9644156,34.8 L25.9644156,31.9 L23.0794805,31.9 L23.0794805,34.8 L20.1945455,34.8 L20.1945455,37.7 L25.9644156,37.7 L25.9644156,40.6 L28.8493506,40.6 L28.8493506,37.7 L34.6192208,37.7 L34.6192208,40.6 L31.7342857,40.6 L31.7342857,43.5 L34.6192208,43.5 L34.6192208,49.3 L37.5041558,49.3 L37.5041558,52.2 L40.3890909,52.2 L40.3890909,49.3 L49.0438961,49.3 L49.0438961,43.5 L51.9288312,43.5 L51.9288312,40.6 L49.0438961,40.6 L49.0438961,34.8 L43.274026,34.8 L43.274026,31.9 L49.0438961,31.9 L49.0438961,34.8 L51.9288312,34.8 L51.9288312,31.9 L54.8137662,31.9 L54.8137662,29 L57.6987013,29 L57.6987013,26.1 L57.6987013,23.2 L54.8137662,23.2 Z M46.158961,37.7 L46.158961,46.4 L37.5041558,46.4 L37.5041558,37.7 L46.158961,37.7 Z" id="Shape"></path>
                    <polygon id="Shape" points="37.5041558 17.4 34.6192208 17.4 34.6192208 20.3 31.7342857 20.3 31.7342857 23.2 31.7342857 26.1 34.6192208 26.1 34.6192208 23.2 37.5041558 23.2 37.5041558 20.3 40.3890909 20.3 40.3890909 17.4"></polygon>
                    <rect id="Rectangle-path" x="31.7342857" y="55.1" width="5.76987013" height="2.9"></rect>
                    <rect id="Rectangle-path" x="23.0794805" y="2.9" width="2.88493506" height="2.9"></rect>
                    <rect id="Rectangle-path" x="46.158961" y="23.2" width="2.88493506" height="2.9"></rect>
                    <rect id="Rectangle-path" x="49.0438961" y="20.3" width="2.88493506" height="2.9"></rect>
                    <rect id="Rectangle-path" x="11.5397403" y="34.8" width="2.88493506" height="2.9"></rect>
                    <path d="M17.3096104,55.1 L17.3096104,43.5 L20.1945455,43.5 L20.1945455,40.6 L20.1945455,37.7 L17.3096104,37.7 L17.3096104,40.6 L8.65480519,40.6 L8.65480519,37.7 L5.76987013,37.7 L2.88493506,37.7 L2.88493506,40.6 L0,40.6 L0,58 L17.3096104,58 L23.0794805,58 L23.0794805,55.1 L17.3096104,55.1 Z M14.4246753,55.1 L2.88493506,55.1 L2.88493506,43.5 L14.4246753,43.5 L14.4246753,55.1 Z" id="Shape"></path>
                    <rect id="Rectangle-path" x="17.3096104" y="17.4" width="2.88493506" height="2.9"></rect>
                    <path d="M20.1945455,0 L17.3096104,0 L0,0 L0,17.4 L2.88493506,17.4 L2.88493506,20.3 L5.76987013,20.3 L5.76987013,17.4 L8.65480519,17.4 L8.65480519,20.3 L11.5397403,20.3 L11.5397403,17.4 L17.3096104,17.4 L17.3096104,11.6 L20.1945455,11.6 L20.1945455,8.7 L17.3096104,8.7 L17.3096104,2.9 L20.1945455,2.9 L23.0794805,2.9 L23.0794805,0 L20.1945455,0 Z M14.4246753,14.5 L2.88493506,14.5 L2.88493506,2.9 L14.4246753,2.9 L14.4246753,14.5 Z" id="Shape"></path>
                    <rect id="Rectangle-path" x="34.6192208" y="8.7" width="2.88493506" height="2.9"></rect>
                    <rect id="Rectangle-path" x="28.8493506" y="0" width="2.88493506" height="2.9"></rect>
                    <path d="M34.6192208,17.4 L34.6192208,14.5 L31.7342857,14.5 L31.7342857,11.6 L28.8493506,11.6 L28.8493506,14.5 L23.0794805,14.5 L23.0794805,11.6 L20.1945455,11.6 L20.1945455,14.5 L20.1945455,17.4 L23.0794805,17.4 L23.0794805,23.2 L14.4246753,23.2 L14.4246753,20.3 L11.5397403,20.3 L11.5397403,23.2 L2.88493506,23.2 L2.88493506,26.1 L8.65480519,26.1 L8.65480519,29 L0,29 L0,31.9 L8.65480519,31.9 L8.65480519,34.8 L11.5397403,34.8 L11.5397403,31.9 L14.4246753,31.9 L14.4246753,34.8 L17.3096104,34.8 L17.3096104,31.9 L23.0794805,31.9 L23.0794805,29 L20.1945455,29 L20.1945455,26.1 L23.0794805,26.1 L25.9644156,26.1 L25.9644156,29 L28.8493506,29 L31.7342857,29 L31.7342857,26.1 L28.8493506,26.1 L28.8493506,23.2 L25.9644156,23.2 L25.9644156,17.4 L34.6192208,17.4 L34.6192208,17.4 Z M17.3096104,29 L11.5397403,29 L11.5397403,26.1 L17.3096104,26.1 L17.3096104,29 Z" id="Shape"></path>
                    <polygon id="Shape" points="25.9644156 46.4 25.9644156 43.5 25.9644156 40.6 23.0794805 40.6 23.0794805 43.5 20.1945455 43.5 20.1945455 46.4 23.0794805 46.4 23.0794805 49.3 20.1945455 49.3 20.1945455 52.2 25.9644156 52.2 25.9644156 49.3 28.8493506 49.3 28.8493506 46.4"></polygon>
                    <polygon id="Shape" points="51.9288312 52.2 51.9288312 49.3 49.0438961 49.3 49.0438961 52.2 40.3890909 52.2 40.3890909 55.1 46.158961 55.1 46.158961 58 49.0438961 58 49.0438961 55.1 54.8137662 55.1 54.8137662 58 57.6987013 58 57.6987013 55.1 57.6987013 52.2"></polygon>
                    <polygon id="Shape" points="54.8137662 40.6 54.8137662 43.5 51.9288312 43.5 51.9288312 46.4 57.6987013 46.4 57.6987013 43.5 57.6987013 40.6"></polygon>
                </g>
            </g>
            <path d="M348.75457,188.124994 C347.126117,186.85876 346.101837,182.856407 348.464444,186.187681 C348.955073,186.65039 350.76331,188.442815 348.75457,188.124994 Z M352.283631,187.714779 C349.226924,186.054962 347.692573,182.505072 346.415585,179.431222 C345.217777,175.483363 345.452684,171.420714 344.394678,167.427745 C343.543261,166.119054 344.203464,160.452732 345.480148,162.02434 C344.501428,166.961081 346.493962,171.8165 346.878224,176.713526 C347.939373,180.157136 349.169232,183.681981 351.785264,186.28193 C352.472441,186.821866 353.990393,189.26148 352.283631,187.714779 L352.283631,187.714779 Z M353.191311,185.794614 C350.388097,182.894116 348.987788,178.833601 347.913234,175.030631 C347.120894,171.147383 346.183158,167.276662 346.486397,163.292588 C346.634712,159.965378 347.53245,155.659724 349.980495,153.611403 C349.020304,156.94847 346.838732,160.94199 347.315505,164.917678 C347.493637,168.521277 348.020712,171.903291 349.14688,175.375358 C350.223418,178.911786 351.611288,182.406063 353.837497,185.380244 C356.909011,186.293429 354.110511,188.220486 353.191311,185.794614 Z M360.377534,186.249728 C356.576199,184.226148 355.455526,179.611004 353.702861,176.122779 C355.043677,172.494537 357.482718,180.524656 357.948296,182.280506 C358.430005,184.362967 361.648141,185.845873 362.180381,186.548981 C361.579059,186.633987 360.888696,186.635876 360.377534,186.249728 Z M355.1519,184.988079 C352.739317,182.167663 351.799531,178.515851 350.637188,175.136036 C350.077069,171.672375 352.618093,174.134494 352.168234,176.1424 C352.590396,179.334133 356.2502,182.460632 355.528174,185.263092 C355.40275,185.17142 355.277324,185.079751 355.1519,184.988079 L355.1519,184.988079 Z M363.136882,185.077686 C361.298755,184.590609 357.128093,180.798367 359.149648,180.214028 C359.594921,182.193092 363.627455,183.43728 363.136882,185.077686 Z M367.096971,185.077686 C363.638421,184.015323 361.558128,180.692808 358.831792,178.558262 C361.529716,178.403163 364.084448,182.632714 366.926911,184.034274 C367.353938,184.34002 368.407897,186.01106 367.096971,185.077686 L367.096971,185.077686 Z M368.878628,183.466129 C367.127567,183.028228 362.400062,179.741443 364.546574,179.229553 C366.318964,180.450801 369.251592,182.731484 369.992448,183.731077 C369.615315,183.82644 369.145614,183.794424 368.878628,183.466129 Z M342.589607,182.463486 C340.654126,179.533031 340.200853,175.872919 340.664379,172.510887 C340.384117,169.261175 342.041849,166.322607 341.996964,163.069832 C343.142997,159.693157 343.169979,155.936953 345.056135,152.794839 C346.126709,150.861901 347.741053,148.613251 350.023477,148.900528 C349.624989,146.396769 352.119624,148.626531 353.139469,146.264682 C356.772616,144.017725 360.988012,143.114664 365.127642,142.352293 C371.030755,143.758616 375.372425,148.317328 378.789861,153.112052 C381.559854,155.997694 383.020532,159.903861 385.925191,162.6665 C387.114151,164.312283 386.011154,166.895637 384.887502,163.907689 C382.86373,160.992853 379.922898,158.58459 378.584175,155.313443 C376.526247,151.896852 374.053743,149.036362 371.183298,146.338019 C367.867619,144.034542 363.492839,142.656284 359.617687,144.495753 C354.857203,145.719116 350.656095,148.753459 348.244117,153.099224 C345.952312,154.126331 351.204472,147.746081 347.510969,150.913988 C344.921712,153.575751 344.675039,157.583279 343.513891,160.95356 C343.102718,164.913656 341.773774,168.365592 341.640942,172.252373 C341.478397,175.861078 342.419011,179.51618 343.592599,182.792488 L343.28265,182.827154 L342.589678,182.463486 L342.589607,182.463486 L342.589607,182.463486 Z M372.224503,182.889174 C368.8328,181.162935 365.938561,178.582004 363.393632,175.836597 C361.736568,173.883802 364.640771,171.089803 365.059435,174.411821 C366.733327,178.366665 371.243245,179.53185 373.391909,182.881147 L373.07226,182.999483 L372.224503,182.889174 L372.224503,182.889174 Z M372.470438,179.725196 C369.398529,177.892257 366.851629,175.328709 365.417854,172.022052 C363.332254,168.102626 362.045961,163.446609 362.148711,158.889893 C363.711844,157.7213 363.218676,162.822236 364.092649,163.844785 C364.423772,167.608771 366.273532,169.847098 367.501207,173.377751 C369.50473,175.639017 372.663566,178.497834 375.190738,180.506785 C374.386658,181.536126 373.046608,180.520879 372.470438,179.725196 Z M343.896666,179.823848 C342.532589,176.34232 343.3005,172.491937 343.05814,168.85145 C344.666289,168.261809 343.307322,173.692671 344.373757,175.423083 C344.015898,176.438959 346.70606,181.732541 343.896666,179.823848 Z M377.335603,179.969644 C374.323559,178.002113 371.527805,175.946063 369.599162,173.200509 C367.762421,169.853669 365.738322,166.357197 365.057298,162.550012 C367.942695,161.936572 366.656463,168.378177 369.51312,169.192979 C370.35501,173.219859 374.215875,176.996596 378.015797,178.855102 C379.418924,179.671719 378.851956,180.788523 377.335603,179.969644 Z M362.670019,178.929232 C360.077716,177.751174 357.294188,172.27336 359.525333,170.651997 C361.195361,172.966064 360.554055,176.468562 363.492072,178.106035 C363.480875,178.343158 362.938339,179.637404 362.670019,178.929232 Z M338.652378,178.529806 C337.580277,175.354964 339.160997,171.967502 338.80875,168.76465 C338.671519,164.796984 340.172882,160.932466 341.365563,157.056955 C342.463555,154.358662 340.842147,154.265171 340.195762,156.75363 C339.215203,159.839678 338.103756,162.828984 337.632699,166.113994 C335.87974,168.332986 339.845873,171.559921 336.495129,173.315738 C332.932195,169.760021 337.910838,164.936838 338.132148,160.781989 C338.853797,157.412713 339.923283,153.890735 342.983681,151.960407 C344.261841,150.507051 347.243672,146.593268 348.148889,147.468409 C345.308465,150.551217 342.077765,153.515873 341.91523,158.034815 C340.97769,162.117419 339.635172,166.029264 339.623115,170.431448 C339.416405,173.14098 339.54434,175.939864 338.652378,178.529806 L338.652378,178.529806 Z M357.693405,177.309796 C355.562981,174.50149 355.342121,171.007313 355.484483,167.653647 C355.073458,165.788676 355.705727,159.451878 356.205428,164.506933 C356.472279,168.175969 356.595536,172.361106 358.486547,175.422242 C359.093869,176.027293 358.903672,179.470152 357.693405,177.309796 Z M378.999656,177.88901 C380.035808,174.651908 374.935749,172.643559 373.98177,169.544871 C372.148534,166.552868 370.289503,163.727233 369.4156,160.312428 C367.811468,157.645212 365.202935,152.400828 361.499241,154.879416 C357.744129,157.251874 358.735689,162.261139 358.90013,166.024372 C359.766719,167.517165 359.533049,171.42104 357.821183,168.633281 C357.749157,165.077676 357.207457,161.433559 357.974889,157.915221 C358.884313,155.060495 362.322309,151.918098 365.429364,153.302231 C369.053298,156.214151 370.698472,160.726612 372.644085,164.825003 C374.567134,168.353837 376.587212,171.776959 379.358979,174.725519 C380.777265,175.466915 381.139414,178.346358 378.999656,177.88901 Z M377.262989,177.166407 C372.029385,173.703833 369.711703,167.453996 367.297252,161.914999 C366.883383,158.939322 362.858182,154.00227 361.103035,158.771817 C360.135525,162.695884 362.296893,166.337703 362.258972,170.044755 C360.315106,170.733904 360.907226,165.245545 360.015715,163.626084 C359.347032,160.381661 360.727793,153.778484 365.136549,156.224865 C368.389468,158.950853 368.569471,163.517614 370.884567,166.889394 C372.728544,170.839858 375.409089,174.433322 378.664951,177.272852 C378.405545,177.716017 377.61906,177.146321 377.262989,177.166407 Z M381.401528,174.556247 C379.186108,171.562713 376.130528,169.217572 374.724693,165.650813 C372.26153,161.892324 371.119682,157.282406 368.041142,153.960215 C365.529146,152.262321 361.884157,148.516956 358.954421,151.467568 C356.424681,152.53789 354.036997,157.482974 352.773131,157.519833 C353.600432,153.793792 356.984554,150.900938 360.337943,149.456227 C363.828909,148.648062 366.374005,151.769385 369.151123,153.291619 C374.008526,158.736421 375.199216,166.703788 380.686641,171.713101 C381.048958,172.40469 384.464622,176.707018 381.401528,174.556247 L381.401528,174.556247 Z M353.170542,174.444079 C351.519864,170.953807 350.740541,167.171198 350.905283,163.251498 C349.877162,161.258831 353.727165,156.311905 352.35087,160.699982 C351.63193,163.76839 351.689956,167.220364 352.285724,170.253988 C355.512826,171.418051 351.075859,163.655518 354.064412,164.714125 C354.070715,167.360798 354.462569,170.920946 354.201816,173.092453 C355.113124,173.883897 353.896499,174.462226 353.170542,174.444079 L353.170542,174.444079 Z M349.551454,172.506851 C348.834359,168.446813 348.010508,164.252953 348.90545,160.079447 C350.194267,155.55095 353.113346,151.380685 356.960846,148.737477 C360.036495,147.168143 363.867573,145.558648 367.052055,147.844396 C368.957196,148.817243 372.550937,152.229514 371.226546,153.742252 C369.535346,151.671877 366.769663,150.185762 364.768802,149.240827 C366.155813,149.174122 368.767617,149.918121 365.983808,148.433103 C363.326023,147.19805 360.199141,148.036726 357.783571,149.555039 C355.055214,150.822239 353.225935,153.601634 351.716733,156.1615 C349.200561,159.191623 349.570547,163.921947 350.063238,167.758771 C349.667058,168.807928 352.066623,174.221359 349.551454,172.506851 L349.551454,172.506851 Z M361.905041,172.48053 C360.805779,169.242071 365.840303,172.737331 362.267771,172.780587 C362.146861,172.680568 362.025951,172.580549 361.905041,172.48053 Z M382.370203,171.648045 C380.011513,168.467375 377.705681,165.225377 375.623586,161.918749 C374.782523,159.947818 371.496654,155.403187 372.844538,154.496854 C375.20416,157.117628 376.461352,160.552865 378.339303,163.687705 C379.840281,166.560055 382.270935,168.844276 383.940647,171.569816 C383.55676,171.965875 382.848816,171.641181 382.370203,171.648045 Z M333.579985,169.457193 C332.68811,166.83908 336.802012,161.93993 335.021349,161.101905 C334.466163,162.963965 332.115662,165.500061 333.473855,161.897893 C336.020649,159.829377 336.885899,156.316044 338.90068,154.126018 C337.576908,158.534201 335.95295,162.893091 334.895623,167.39955 C334.617901,168.161505 334.332668,169.034715 333.579985,169.457193 L333.579985,169.457193 Z M384.119616,168.871173 C382.645831,165.720346 379.689355,163.491214 378.445577,160.358586 C375.450405,157.813129 375.059499,153.584939 372.166371,150.939801 C369.654541,148.231448 366.693974,145.110876 362.645237,145.571178 C358.830362,146.248423 354.57084,148.11979 352.499421,151.527986 C351.162793,153.808421 349.558743,152.296927 351.624408,150.727468 C354.524917,146.860363 359.446977,145.094672 364.090085,144.653279 C368.484779,145.31311 372.039227,148.221667 374.578385,151.758292 C376.871843,154.672753 378.182213,158.225525 380.644702,161.035109 C380.95646,163.425042 386.49539,166.937766 384.119616,168.871173 Z M353.472377,162.819484 C353.151757,161.528933 354.322019,155.879862 354.479717,160.013763 C354.345895,160.570672 354.409511,163.486129 353.472377,162.819484 Z M387.029627,161.482385 C383.27593,156.520785 379.383498,151.66007 375.398704,146.895098 C372.475744,144.334075 369.193429,141.534852 365.102223,141.4842 C361.730306,140.245984 358.128292,140.478986 354.869227,141.83519 C351.353806,143.185618 348.097319,145.032061 345.345611,147.653567 C343.233021,148.886393 340.876909,153.860817 339.439265,152.849412 C342.767971,148.384281 346.999043,144.46901 351.993173,142.005165 C357.843536,139.671048 364.560396,139.190778 370.437234,141.712155 C373.408503,143.003644 375.689034,145.591455 377.965905,147.796817 C380.79547,150.614583 382.790401,154.041584 385.362419,157.006954 C385.401477,158.407823 390.619658,162.141793 387.029627,161.482385 Z M364.737003,161.137537 C363.382692,159.271062 364.435287,157.319294 365.299009,160.132086 C365.627486,160.493219 365.475756,162.117692 364.737003,161.137537 Z M332.381616,160.309066 C336.145824,155.764112 337.70803,149.390553 342.888857,146.076629 C343.449951,147.958642 338.018393,150.966995 337.238173,154.023794 C335.96735,156.284672 335.388713,159.785978 332.381616,160.309066 L332.381616,160.309066 Z M356.037712,159.698055 C354.792213,158.069836 358.196049,152.099491 358.166219,155.106328 C357.269794,156.54506 357.124883,158.375227 356.037712,159.698055 Z M345.336853,158.609085 C345.426421,156.749404 348.069889,151.720476 346.8388,156.297977 C346.570059,157.065887 346.527196,158.759242 345.336853,158.609085 Z M387.746635,157.709829 C383.664156,151.972298 379.24931,146.22113 373.507791,142.085307 C368.705327,139.072013 362.686575,138.037282 357.233077,139.582083 C355.237693,140.026317 353.009951,139.397852 356.103281,138.863128 C359.45354,138.595319 362.724616,137.471676 366.09537,138.077574 C371.667754,139.082433 376.985435,142.158378 380.449812,146.717849 C383.397032,150.030525 386.487416,153.282556 388.882161,157.02671 C389.63336,158.120226 388.292097,158.107105 387.746635,157.709829 L387.746635,157.709829 Z M332.641432,157.520183 C332.659974,153.814441 335.858246,151.010711 337.704432,148.047894 C341.11554,143.61347 345.507764,139.891308 350.541453,137.494054 C352.952461,137.710418 347.375488,140.382996 346.036487,141.243979 C343.141324,143.085883 341.309911,146.136263 338.567484,148.160652 C336.989286,151.023939 334.711434,153.497288 333.646371,156.615246 C333.549412,157.030603 333.169766,157.651502 332.641432,157.520183 L332.641432,157.520183 Z M389.202625,154.660171 C385.497263,149.567544 381.158703,144.836867 376.198939,140.972242 C372.975819,139.400725 369.858673,137.122226 366.128033,137.022286 C363.752675,135.461089 360.545244,138.402455 358.997667,136.836248 C361.958751,134.526463 366.042661,135.970264 369.535806,136.708368 C373.772969,138.225158 378.054578,140.129762 381.107832,143.610045 C384.733423,146.215792 386.661724,150.515075 389.81404,153.594331 C390.269922,154.090975 390.060292,155.078051 389.202625,154.660171 Z M331.837454,153.488348 C331.254018,151.603908 336.40277,147.094361 334.205282,150.662862 C333.246299,151.415745 333.408682,153.643835 331.837454,153.488348 Z M358.773419,153.102932 C359.712244,151.229959 365.104979,151.296708 360.989087,152.848153 C360.460875,153.030799 358.81408,154.454886 358.773419,153.102932 Z M389.788975,151.833456 C388.515923,149.244615 385.135192,145.937545 384.484661,144.339473 C387.262781,145.170663 390.197733,147.986755 391.809432,149.843895 C390.602688,148.827548 387.260087,147.805245 389.785771,150.122559 C390.522517,150.899625 392.233945,153.689536 389.788981,151.833456 L389.788975,151.833456 Z M331.539777,149.77774 C329.905411,147.705692 336.276867,144.848274 333.304457,148.025214 C332.904006,148.591856 332.63544,150.92823 331.539777,149.77774 Z M335.40078,148.494505 C334.499147,146.615318 338.857702,145.0991 336.543006,147.781388 C336.350103,148.157077 335.909676,148.84973 335.40078,148.494505 Z M391.059727,146.839836 C386.81101,144.278773 384.526007,139.540181 380.239522,137.025972 C377.703789,134.624041 374.788226,133.053985 371.461163,132.048419 C367.641595,130.58183 363.574199,130.218761 359.510085,130.448156 C356.195552,130.46961 352.749126,131.038302 349.627554,131.71237 C344.594237,133.489932 340.831199,137.438484 336.578788,140.510275 C333.485199,141.164126 338.53353,137.352082 339.675272,136.822844 C342.437899,133.975138 346.175562,132.339197 349.643856,130.607048 C353.101109,130.370944 356.481949,129.709695 359.919436,129.282097 C363.2881,128.761754 366.41176,129.936351 369.693446,130.357787 C372.675637,131.236901 375.729929,132.056565 378.178761,134.175881 C381.570275,135.914329 384.120831,138.796967 387.031068,141.188613 C386.840728,143.504007 394.037742,146.169575 391.059727,146.839836 L391.059727,146.839836 L391.059727,146.839836 Z M348.673585,146.738606 C350.484217,144.283705 353.819731,143.930479 356.326437,142.495712 C357.925297,141.046915 364.681242,141.461968 359.819543,142.497733 C355.931108,142.929166 352.769089,145.435265 349.143833,146.649053 L348.673585,146.738611 L348.673585,146.738611 L348.673585,146.738606 Z M334.384178,145.87246 C335.694906,141.466925 340.291231,139.463378 343.597823,136.790375 C346.692665,133.662565 351.037183,132.131898 355.374333,132.102813 C359.796318,130.82863 364.510967,131.33233 368.882888,132.52459 C370.366711,133.111771 375.879514,134.060952 374.686802,135.36303 C371.582483,134.570321 368.66634,133.016187 365.454767,132.737426 C361.633293,131.314736 357.631633,132.251181 353.837987,133.178037 C347.857085,133.758118 343.340434,138.063649 338.76201,141.512617 C337.27999,142.888225 336.502101,145.376598 334.384178,145.87246 L334.384178,145.87246 Z M337.397676,145.271295 C339.327336,141.749625 343.092685,139.92409 346.001713,137.358783 C350.465497,134.514292 355.800581,133.335577 361.022842,133.171701 C364.355877,133.060275 367.54218,134.143481 370.654726,135.007101 C372.684473,135.243402 375.76527,138.075784 376.848782,137.386851 C374.010223,133.306919 380.847476,139.2698 381.941877,140.379255 C383.838985,141.155822 385.931669,144.830663 382.624821,143.204303 C380.49318,140.102359 377.329762,138.452607 373.858456,137.313137 C368.413407,134.276052 361.954825,134.036664 355.892364,134.55587 C350.703066,135.235793 346.099214,138.095463 342.394273,141.71206 C340.150737,141.803309 339.51296,145.553428 337.397676,145.271295 L337.397676,145.271295 Z M343.594107,145.570124 C344.999641,142.283253 349.563772,141.238344 351.638195,139.208071 C351.790203,141.132652 354.507925,139.737856 351.860009,140.83932 C348.63049,141.600606 346.495275,144.738855 343.594107,145.570124 Z M391.350185,143.177207 C388.004361,140.291972 383.661858,136.580992 381.228237,133.840366 C385.088299,133.686739 387.121743,138.206809 389.844197,140.496644 C391.002564,140.771333 394.657031,145.527266 391.350185,143.177207 Z M331.249657,143.226041 C330.025735,141.113907 335.103016,140.761109 332.002109,142.717518 L331.655291,142.961181 L331.249657,143.226041 Z M332.895583,140.682022 C330.608972,138.631084 336.911658,136.993997 337.609617,134.743511 C339.204622,132.856991 342.08059,133.562702 339.091271,135.515653 C336.635771,136.499062 334.024584,140.157494 332.895583,140.682022 L332.895583,140.682022 Z M392.452245,140.320356 C389.68604,138.120931 387.59661,135.173289 384.679119,133.143846 C382.658567,130.104137 379.240125,129.272319 376.274601,127.602533 C374.380235,125.481377 369.57735,126.04213 368.910976,123.760161 C372.396824,124.23214 375.605097,125.803235 378.677701,127.460114 C383.017549,129.586908 386.507142,133.069279 390.109235,136.227167 C390.802303,136.542251 395.375386,142.883202 392.452245,140.320356 L392.452245,140.320356 Z M352.065788,138.753442 C353.144391,137.018288 359.021415,137.035767 357.703575,137.574606 C355.784212,137.779507 354.057995,139.179755 352.065788,138.753442 L352.065788,138.753442 Z M332.314667,136.763676 C332.228659,134.592385 338.909636,132.285447 335.251762,135.093346 C334.338534,135.377269 333.184051,137.352306 332.314667,136.763676 Z M352.065788,137.031538 C353.713041,135.665547 359.509302,134.301102 358.8201,135.657681 C356.641884,136.422041 354.332396,136.673407 352.065788,137.031538 Z M392.257865,136.165307 C389.305638,132.275609 385.086485,129.572769 380.948073,127.128474 C375.862016,124.427933 370.141075,121.417673 364.232385,123.119452 C360.726895,123.990248 356.891688,123.269911 353.59069,125.010565 C352.145409,125.245718 347.185402,127.898639 347.90461,126.066137 C351.529693,124.627684 355.070163,122.666316 359.071986,122.683367 C362.671294,122.390376 366.241713,121.352533 369.852655,121.691815 C373.693767,122.459743 377.406617,123.760044 380.794418,125.766441 C384.639255,127.325687 387.614478,130.384876 390.972558,132.723193 C391.667773,133.057365 394.49837,136.979048 392.257865,136.165307 L392.257865,136.165307 Z M331.833597,134.731795 C332.538404,131.004164 336.917354,129.902126 339.670062,128.02872 C344.132724,125.259331 348.933488,123.068893 353.828312,121.209597 C357.127083,120.346699 360.664672,119.840754 364.029121,120.425396 C362.65751,121.752866 358.144058,120.945977 355.579079,121.873488 C349.276049,123.656286 343.47203,126.913463 337.850384,130.2047 C335.997593,131.854371 333.302402,133.243875 331.833597,134.731795 Z M378.243284,132.818644 C376.139924,129.60855 383.096163,135.487471 378.606151,133.185682 C378.485194,133.063335 378.364239,132.94099 378.243284,132.818644 Z M336.816761,133.081915 C338.9948,130.356766 342.353115,129.052491 345.321887,127.503118 C348.859812,127.617237 342.75512,129.742785 341.716416,130.621995 C340.165542,131.416835 338.562455,133.22752 336.816761,133.081915 L336.816761,133.081915 Z M340.816348,133.077813 C343.167728,130.824398 346.420419,129.927758 349.040102,128.05042 C352.68616,126.412342 356.420712,124.887737 360.480331,124.814064 C363.794584,123.674638 366.923871,124.779175 370.075845,125.946691 C371.559901,126.287858 376.918471,128.485878 372.716329,127.603374 C366.73009,125.31069 360.074327,125.417819 353.928195,126.975566 C349.992597,128.527507 346.398149,130.765942 342.695926,132.758708 C342.096767,132.980838 341.456927,133.111562 340.816348,133.077813 L340.816348,133.077813 Z M382.349103,132.92531 C379.838612,131.203793 376.897415,130.686356 373.988807,130.246816 C369.337853,128.91212 364.470344,127.785507 359.613219,128.124684 C356.869044,127.999521 353.813008,130.058268 351.360854,129.28758 C354.560411,127.948735 358.094997,127.322964 361.518764,127.056998 C366.668545,126.690423 371.550735,128.563259 376.514472,129.609426 C377.623319,129.889153 383.968609,132.091899 382.349103,132.92531 L382.349103,132.92531 Z M331.830572,131.359125 C332.961152,127.38186 337.888913,126.666175 340.925043,124.641953 C346.115757,122.507794 350.796219,118.971937 356.508169,118.295348 C358.025955,117.66155 364.29584,118.140333 359.583388,118.942563 C356.221696,119.262269 352.914249,119.896605 349.851651,121.452239 C345.741527,122.622739 342.470943,125.603699 338.487816,127.097269 C336.156191,128.348273 334.072115,129.927519 331.830572,131.359125 L331.830572,131.359125 Z M392.037878,130.859802 C388.026426,128.253304 383.953555,125.780132 379.703407,123.596114 C376.744322,121.94802 373.345514,121.433844 370.258134,120.136514 C367.682393,120.726729 363.857526,119.402715 362.580879,118.411236 C365.989813,117.701758 369.78897,119.228623 373.224726,119.963516 C376.255158,121.145258 379.452327,122.156549 382.21043,123.826196 C383.033568,125.034954 387.658188,126.68823 384.999209,124.070182 C379.708313,120.941604 374.067059,118.169505 367.921206,117.232348 C361.518626,116.311101 354.729976,116.421956 348.832447,119.386743 C347.228049,119.751235 343.234716,123.149444 342.973808,120.692846 C345.632674,119.356789 349.056156,118.152543 352.295888,117.194119 C358.246358,115.174799 364.860279,114.821062 370.848881,116.867732 C376.6019,118.106503 381.925369,120.763044 386.640286,124.275709 C387.781609,127.191699 393.353579,128.598776 392.873651,131.427389 L392.569645,131.28013 L392.037878,130.859802 L392.037878,130.859802 L392.037878,130.859802 Z M392.169861,126.98033 C389.15263,124.619633 386.279332,122.079625 382.953505,120.159811 C378.647894,117.047343 373.320944,116.25767 368.340407,114.826774 C364.483798,114.164073 360.401996,113.601485 356.552477,114.639693 C352.97133,115.258038 349.531973,116.793297 345.916603,117.447703 C343.154364,118.632322 339.842499,121.465476 337.281569,121.416131 C340.691412,118.758394 344.491987,116.46669 348.786313,115.392375 C352.357937,114.173969 356.108899,114.187194 359.680014,112.935367 C363.047663,113.297131 366.589078,113.291992 369.903327,114.14852 C376.543732,115.548 383.053548,118.2802 388.492513,122.474211 C390.111652,122.656783 394.881726,128.519433 392.211463,127.021825 L392.169861,126.980327 L392.169861,126.98033 L392.169861,126.98033 Z M331.818362,127.374232 C333.571617,124.39256 337.73436,124.335361 340.238506,122.209425 C342.717025,120.376093 343.059592,123.020142 340.429687,123.401591 C337.681774,125.126624 334.602933,125.708428 331.818362,127.374232 L331.818362,127.374232 Z M332.992402,122.275805 C333.350528,120.2741 340.126845,117.906666 336.307012,120.849301 C335.398433,121.642439 334.255848,122.412588 332.992402,122.275805 Z M391.238654,122.080462 C387.995646,120.960475 385.856077,117.91493 382.577167,116.794637 C376.840245,113.751363 370.363488,112.678456 363.980825,112.059249 C359.816376,110.888734 355.949188,112.676257 351.824663,112.768083 C348.229478,113.709518 344.850131,115.367374 341.302027,116.459344 C341.120867,113.934766 346.514438,114.358801 348.402758,112.610436 C351.306947,111.260034 354.79367,112.452296 357.712219,110.915187 C360.827402,110.185256 363.939808,111.015394 367.020433,111.203717 C370.086232,112.76841 373.436664,112.268975 376.673254,112.982454 C381.434967,114.442218 385.891527,116.926555 389.610074,120.22975 C394.042568,122.29621 386.986043,116.659526 385.719046,115.52022 C382.185514,112.346733 377.396172,111.537796 372.997928,110.401883 C368.074158,110.738509 363.158033,108.04884 358.318767,109.872127 C356.711157,108.926121 351.64357,112.453582 352.393228,110.080154 C355.877903,108.703812 359.733902,108.333618 363.449064,108.256498 C367.114358,108.430657 370.497748,110.025911 374.215423,109.775954 C379.414718,109.819545 384.099116,112.463792 387.836693,115.9279 C389.0875,116.34553 395.740435,123.431801 391.238654,122.080462 L391.238654,122.080462 Z M334.154233,118.906183 C335.667628,115.531732 343.221807,115.53607 337.087362,117.986283 C336.122663,118.334805 335.12459,118.575654 334.154233,118.906183 Z M335.24829,116.044449 C337.16747,112.826838 341.85475,112.481748 344.616833,110.225605 C344.955072,110.73579 344.033783,112.696316 343.318564,113.131826 C340.955419,112.692359 337.55071,115.418448 335.24829,116.044449 L335.24829,116.044449 Z M389.202653,115.543318 C388.119818,112.035708 383.846968,111.486991 381.321671,109.368897 C378.218448,108.449448 375.281536,107.159615 372.379026,105.737218 C369.135391,104.507005 365.608968,104.72155 362.232137,104.108441 C358.904218,104.536157 355.581455,104.748717 352.286132,105.658341 C348.405509,106.635882 344.619284,108.31002 341.325323,110.4752 C338.952965,108.522154 345.699563,107.272734 347.36634,106.082731 C351.093967,104.849703 354.826175,103.529344 358.798577,103.320517 C362.830577,102.679914 366.826564,103.54663 370.7826,104.114952 C376.272521,105.98022 381.719778,108.145447 386.652741,111.239319 C388.041798,111.468407 392.926022,115.905684 389.202653,115.543318 Z M345.295807,112.492931 C345.720348,109.811432 350.5622,112.145737 346.54523,112.095526 C346.060769,111.879232 345.680666,113.103743 345.295807,112.492931 Z M336.998297,112.167588 C336.058131,108.833792 342.757587,111.082833 338.211068,111.705448 C337.851592,111.912981 337.46874,112.526335 336.998297,112.167588 Z M346.498683,110.408883 C348.256838,108.139647 352.233255,107.255671 354.862623,106.899898 C354.650543,108.976884 350.147915,108.47714 348.464778,110.329172 C347.834627,110.542493 347.143316,110.585684 346.498683,110.408883 Z M387.081762,109.338378 C382.545326,106.932585 377.869064,104.832442 372.987375,103.23889 C369.628498,101.898533 365.825947,101.958122 362.251363,101.764155 C358.688486,102.391857 354.982922,101.746149 351.539609,102.909592 C349.537332,103.232737 344.273911,106.727987 344.011972,104.40689 C347.376493,103.76963 350.113138,101.184916 353.66023,101.17471 C357.509923,100.781574 361.375879,100.705797 365.203881,100.39562 C368.498702,100.650267 371.598294,101.098437 374.565658,102.594033 C378.274967,103.852454 381.764824,105.721798 385.540155,106.787336 C385.876251,107.422392 390.43198,110.424358 387.081762,109.338378 L387.081762,109.338378 Z M337.721085,108.944269 C337.903863,106.323214 345.442572,104.461713 341.201267,107.481205 C340.106348,108.114434 338.909892,108.532537 337.721085,108.944269 Z M373.875548,108.506537 C369.197432,107.441778 364.438998,106.75907 359.634308,107.13299 C357.922534,107.463004 354.97607,106.375749 358.327985,106.077733 C362.276535,105.891179 366.33199,105.713332 370.232236,106.440802 C370.874887,106.341989 376.469389,108.657454 373.875548,108.506537 Z M383.396297,104.499841 C379.607672,102.411293 375.411303,101.330521 371.399683,99.7995011 C369.765634,99.5546837 363.004023,98.9689457 367.850351,98.2727121 C372.107371,98.3583034 375.88607,100.700742 379.964129,101.696197 C380.918496,101.662774 387.873051,105.626107 383.396297,104.499841 Z M342.024918,103.608291 C343.739566,100.981559 347.299495,100.702335 349.862036,99.2725938 C353.310227,98.7695024 357.033478,96.8718033 360.248356,97.5775129 C356.441988,99.5636937 352.213382,99.4579419 348.370475,101.056269 C346.288101,101.988769 344.241945,103.02562 342.024918,103.608291 L342.024918,103.608291 Z" id="path2830" fill="#ABABAB" fill-rule="nonzero" mask="url(#mask-2)"></path>
            <g id="Fingerprint_picture" mask="url(#mask-2)">
                <g transform="translate(356.529355, 146.189180) rotate(7.000000) translate(-356.529355, -146.189180) translate(325.029355, 100.689180)"></g>
            </g>
        </g>
    </g>
</svg>