<?xml version="1.0" encoding="UTF-8"?>
<svg width="98px" height="143px" viewBox="0 0 98 143" version="1.1" xmlns="http://www.w3.org/2000/svg" xmlns:xlink="http://www.w3.org/1999/xlink">
    <!-- Generator: Sketch 43.2 (39069) - http://www.bohemiancoding.com/sketch -->
    <title>Group 2</title>
    <desc>Created with Sketch.</desc>
    <defs>
        <rect id="path-1" x="0" y="0" width="429" height="330"></rect>
    </defs>
    <g id="Page-1" stroke="none" stroke-width="1" fill="none" fill-rule="evenodd">
        <g id="Group-2" transform="translate(-164.000000, -132.000000)">
            <mask id="mask-2" fill="white">
                <use xlink:href="#path-1"></use>
            </mask>
            <g id="Rectangle-2"></g>
            <path d="M191.874949,274.849346 C189.339748,272.865643 187.745133,266.595492 191.423276,271.81432 C192.187095,272.539207 195.002185,275.347249 191.874949,274.849346 Z M197.369044,274.206697 C192.610317,271.606401 190.221615,266.045084 188.233581,261.229541 C186.368815,255.044761 186.734522,248.68015 185.087402,242.424699 C183.761903,240.374482 184.789717,231.49753 186.777279,233.959637 C185.253593,241.693615 188.355599,249.300193 188.953825,256.971954 C190.605838,262.36677 192.5205,267.88885 196.593178,271.961971 C197.662987,272.807844 200.026157,276.629783 197.369044,274.206697 L197.369044,274.206697 Z M198.782134,271.198534 C194.418048,266.654568 192.238025,260.293298 190.565143,254.335504 C189.331617,248.251944 187.871734,242.188009 188.343822,235.946495 C188.574721,230.734034 189.972333,223.988727 193.783487,220.779794 C192.288647,226.007697 188.892343,232.26401 189.63459,238.492387 C189.911909,244.137845 190.732467,249.436162 192.485702,254.875559 C194.161672,260.415785 196.32233,265.889976 199.788125,270.549377 C204.569905,271.979986 200.213158,274.998945 198.782134,271.198534 Z M209.969754,271.911523 C204.051778,268.741351 202.307097,261.511191 199.578522,256.04648 C201.665925,250.362418 205.463061,262.942532 206.187879,265.693275 C206.937812,268.955693 211.947854,271.278838 212.776454,272.380338 C211.840306,272.513511 210.765539,272.516469 209.969754,271.911523 Z M201.834409,269.935005 C198.078462,265.516494 196.615389,259.795507 194.805836,254.500633 C193.933835,249.074406 197.889739,252.931601 197.189391,256.07722 C197.846621,261.07744 203.544259,265.975465 202.420197,270.365843 C202.224935,270.222229 202.029671,270.078618 201.834409,269.935005 L201.834409,269.935005 Z M214.265548,270.075384 C211.403925,269.312322 204.910975,263.371333 208.058162,262.455898 C208.75137,265.556331 215.02928,267.505496 214.265548,270.075384 Z M220.430676,270.075384 C215.046352,268.411069 211.807721,263.205963 207.56332,259.861948 C211.763488,259.618967 215.740733,266.245051 220.165924,268.440757 C220.830725,268.919744 222.471544,271.537623 220.430676,270.075384 L220.430676,270.075384 Z M223.204386,267.550693 C220.478307,266.86467 213.118456,261.715539 216.460179,260.913603 C219.219463,262.82683 223.785022,266.399785 224.938397,267.965764 C224.351271,268.115161 223.620034,268.065005 223.204386,267.550693 Z M182.27724,265.979936 C179.264055,261.389037 178.558392,255.655045 179.280017,250.388032 C178.8437,245.296981 181.424482,240.693372 181.354605,235.597521 C183.138766,230.307568 183.180772,224.423038 186.117169,219.500551 C187.783854,216.472379 190.29709,212.949606 193.850402,213.39966 C193.23003,209.47723 197.113715,212.970412 198.701425,209.2703 C204.357564,205.75018 210.920156,204.33543 217.364794,203.141089 C226.55485,205.344256 233.314027,212.486008 238.634343,219.997502 C242.94671,224.518196 245.220716,230.637659 249.742733,234.965655 C251.593723,237.543966 249.876561,241.59109 248.127243,236.910122 C244.976604,232.343692 240.398273,228.570869 238.314128,223.446237 C235.110315,218.093749 231.261083,213.612459 226.792331,209.385192 C221.630432,205.776527 214.819708,203.617326 208.786812,206.499068 C201.37562,208.415607 194.835271,213.169259 191.080268,219.977405 C187.512351,221.586487 195.688992,211.591083 189.938891,216.553979 C185.907896,220.72394 185.523873,227.002198 183.71618,232.282135 C183.076059,238.486087 181.007139,243.893946 180.800344,249.98304 C180.547292,255.636496 182.011654,261.362638 183.838714,266.495356 L183.356181,266.549664 L182.277351,265.979936 L182.27724,265.979936 L182.27724,265.979936 Z M228.413294,266.646826 C223.13304,263.942471 218.627245,259.899143 214.665261,255.598144 C212.085519,252.538863 216.606826,248.161739 217.258609,253.366066 C219.864549,259.561789 226.885658,261.387187 230.23073,266.634251 L229.733096,266.819636 L228.413294,266.646826 L228.413294,266.646826 Z M228.79617,261.690086 C224.013775,258.818573 220.048723,254.802478 217.816601,249.622215 C214.569706,243.481978 212.567186,236.187787 212.72715,229.04916 C215.160659,227.218424 214.392887,235.209634 215.753501,236.811576 C216.268998,242.708298 219.148734,246.214897 221.059996,251.746075 C224.179111,255.288612 229.096834,259.767281 233.031174,262.914536 C231.77937,264.527118 229.693161,262.936615 228.79617,261.690086 Z M184.31209,261.844636 C182.188473,256.390417 183.38397,250.358344 183.006659,244.655099 C185.51025,243.731358 183.39459,252.239434 185.054833,254.950326 C184.497711,256.541813 188.685797,264.834825 184.31209,261.844636 Z M236.370333,262.073042 C231.681137,258.990677 227.328665,255.769634 224.326124,251.468405 C221.466658,246.22519 218.31551,240.747561 217.255281,234.783163 C221.747312,233.822137 219.744886,243.913661 224.192172,245.190143 C225.50284,251.49872 231.513492,257.415416 237.429269,260.326982 C239.613678,261.606307 238.731014,263.355912 236.370333,262.073042 Z M213.538729,260.443116 C209.502994,258.59755 205.169555,250.015918 208.643034,247.475865 C211.24296,251.10112 210.244565,256.58819 214.818514,259.153483 C214.801082,259.524963 213.956455,261.55255 213.538729,260.443116 Z M176.147703,259.817369 C174.47864,254.84361 176.939528,249.536757 176.391145,244.519117 C176.177502,238.303306 178.514846,232.24909 180.371631,226.17765 C182.081002,221.950461 179.556768,221.803997 178.550467,225.702457 C177.023918,230.53711 175.293599,235.220206 174.560251,240.366555 C171.831219,243.842864 178.005754,248.898233 172.789264,251.648925 C167.242435,246.078481 174.993262,238.522403 175.337801,232.01335 C176.461275,226.734987 178.126266,221.217398 182.890741,218.193316 C184.8806,215.916465 189.52276,209.785068 190.932015,211.156079 C186.509999,215.985655 181.480398,220.630134 181.227359,227.709582 C179.767784,234.105456 177.677731,240.233816 177.658961,247.13035 C177.337152,251.375145 177.536323,255.759923 176.147703,259.817369 L176.147703,259.817369 Z M205.791061,257.906081 C202.474385,253.506542 202.130547,248.032509 202.352178,242.778601 C201.712288,239.856907 202.696615,229.929575 203.474556,237.848908 C203.889994,243.596879 204.081882,250.153383 207.025837,254.949009 C207.971326,255.89689 207.675224,261.29053 205.791061,257.906081 Z M238.960955,258.813487 C240.574052,253.74219 232.634204,250.595879 231.149035,245.741423 C228.295024,241.054102 225.400857,236.627416 224.040352,231.277728 C221.543015,227.099224 217.482011,218.883287 211.716044,222.766283 C205.870029,226.483014 207.413705,234.33061 207.669709,240.226152 C209.018828,242.564785 208.655047,248.680659 205.989988,244.313311 C205.877857,238.743043 205.034531,233.03411 206.22928,227.522225 C207.645085,223.049964 212.99741,218.127034 217.834519,220.295438 C223.476315,224.857301 226.037546,231.926595 229.066506,238.347201 C232.060338,243.875529 235.205225,249.238249 239.520355,253.857511 C241.728364,255.018993 242.292162,259.529976 238.960955,258.813487 Z M236.257286,257.681445 C228.109532,252.256921 224.501329,242.465824 220.742476,233.788341 C220.098158,229.126597 213.831664,221.392132 211.099225,228.864181 C209.59299,235.011689 212.957841,240.717021 212.898805,246.52455 C209.872565,247.604181 210.794386,239.006029 209.406469,236.468955 C208.365454,231.386189 210.515042,221.041544 217.378661,224.874085 C222.442855,229.144663 222.723085,236.299025 226.327261,241.58131 C229.197994,247.770171 233.371107,253.39975 238.439882,257.848203 C238.036034,258.542473 236.811622,257.649978 236.257286,257.681445 Z M242.700226,253.592327 C239.251226,248.902607 234.494253,245.228672 232.305628,239.640929 C228.470939,233.752819 226.693292,226.530845 221.900574,221.326247 C217.989862,218.666299 212.315287,212.798749 207.75423,217.421227 C203.815893,219.098009 200.098711,226.845059 198.131104,226.902803 C199.41906,221.065527 204.687512,216.533534 209.908119,214.270226 C215.342906,213.004142 219.30515,217.894058 223.628609,220.278814 C231.190688,228.808729 233.044373,241.290537 241.587279,249.138207 C242.151339,250.221662 247.468897,256.961759 242.700226,253.592327 L242.700226,253.592327 Z M198.7498,253.416601 C196.179999,247.948685 194.966738,242.022789 195.223211,235.882123 C193.622616,232.760379 199.616359,225.010444 197.473723,231.884875 C196.354465,236.691894 196.444801,242.099813 197.372302,246.852338 C202.396303,248.675977 195.488765,236.515067 200.141391,238.173498 C200.151203,242.319819 200.761247,247.897204 200.355303,251.299122 C201.774041,252.539012 199.87998,253.445032 198.7498,253.416601 L198.7498,253.416601 Z M193.115549,250.381709 C191.999165,244.021188 190.716581,237.451018 192.109841,230.912736 C194.116291,223.818319 198.660757,217.285114 204.650602,213.144221 C209.438819,210.685676 215.4031,208.164217 220.360749,211.745106 C223.326701,213.269184 228.921491,218.614903 226.859659,220.984782 C224.226774,217.7413 219.921117,215.413128 216.806147,213.932778 C218.965466,213.828276 223.031562,214.993837 218.697687,212.667384 C214.560007,210.73253 209.692029,212.046414 205.931434,214.425026 C201.683886,216.410244 198.836037,220.764489 196.486488,224.774817 C192.569274,229.521856 193.145274,236.932458 193.912302,242.943289 C193.295523,244.586916 197.031202,253.067684 193.115549,250.381709 L193.115549,250.381709 Z M212.3478,250.340474 C210.636452,245.267052 218.474276,250.742784 212.912504,250.810549 C212.724269,250.653857 212.536035,250.497165 212.3478,250.340474 Z M244.208274,249.03629 C240.536229,244.053401 236.946476,238.974433 233.705039,233.794217 C232.395658,230.706524 227.280168,223.58683 229.378575,222.166955 C233.052069,226.272702 235.009285,231.654401 237.932908,236.565492 C240.269652,241.065362 244.053732,244.643859 246.653164,248.913734 C246.055524,249.534207 244.953386,249.025537 244.208274,249.03629 Z M168.250925,245.604066 C166.862441,241.502487 173.267024,233.827398 170.494863,232.514536 C169.63054,235.431669 165.971244,239.404758 168.0857,233.761543 C172.050587,230.520973 173.397621,225.016928 176.534263,221.585996 C174.473394,228.491929 171.945193,235.320636 170.29913,242.380529 C169.866768,243.574219 169.422714,244.942204 168.250925,245.604066 L168.250925,245.604066 Z M246.931787,244.685996 C244.637376,239.74986 240.034688,236.257666 238.098357,231.35004 C233.435428,227.362286 232.826859,220.738334 228.322793,216.594418 C224.412339,212.351468 219.803284,207.462729 213.500149,208.183845 C207.561093,209.244828 200.929805,212.176543 197.704988,217.515877 C195.624106,221.088444 193.126897,218.720513 196.342756,216.261774 C200.858311,210.203504 208.52105,207.437344 215.74951,206.74585 C222.591236,207.779552 228.124854,212.336145 232.077853,217.876679 C235.648343,222.442521 237.688348,228.008352 241.521987,232.409892 C242.007337,236.154 250.630428,241.65709 246.931787,244.685996 Z M199.219701,235.205322 C198.720555,233.183524 200.542437,224.333597 200.787944,230.809834 C200.579607,231.682296 200.678646,236.249699 199.219701,235.205322 Z M251.462136,233.110601 C245.618323,225.337678 239.558527,217.722803 233.354939,210.25792 C228.804431,206.245779 223.694473,201.860471 217.325221,201.78112 C212.07577,199.84131 206.468101,200.206335 201.394338,202.330986 C195.921478,204.446588 190.851729,207.339255 186.56783,211.44615 C183.278918,213.377516 179.610886,221.170529 177.372741,219.586046 C182.55492,212.590898 189.141917,206.457172 196.916855,202.597272 C206.024789,198.940606 216.481697,198.188207 225.630847,202.138238 C230.256563,204.161504 233.806929,208.215612 237.351596,211.670567 C241.756705,216.084926 244.862444,221.453721 248.866602,226.099318 C248.927407,228.293943 257.05115,234.143641 251.462136,233.110601 Z M216.756641,232.570356 C214.648229,229.646307 216.286925,226.588635 217.631581,230.995202 C218.142959,231.560957 217.906743,234.105883 216.756641,232.570356 Z M166.385287,231.272461 C172.245462,224.152262 174.677528,214.16734 182.743117,208.975694 C183.616637,211.924085 175.160706,216.637021 173.946047,221.425851 C171.96761,224.967779 171.06678,230.452983 166.385287,231.272461 L166.385287,231.272461 Z M203.213453,230.31524 C201.274443,227.764446 206.573585,218.411206 206.527145,223.121766 C205.131578,225.375707 204.905978,228.242877 203.213453,230.31524 Z M186.554194,228.609242 C186.693636,225.695836 190.809027,217.817436 188.892449,224.988624 C188.474068,226.191644 188.407339,228.844481 186.554194,228.609242 Z M252.578385,227.200453 C246.222719,218.211944 239.34962,209.202071 230.411137,202.722823 C222.934588,198.002148 213.564504,196.381122 205.074416,198.801231 C201.967972,199.497176 198.499789,198.512613 203.315533,197.674905 C208.531267,197.255352 213.623727,195.495034 218.871368,196.444244 C227.546539,198.018472 235.825185,202.837297 241.21858,209.980238 C245.806857,215.169932 250.618013,220.264617 254.346188,226.130268 C255.515666,227.843389 253.427568,227.822833 252.578385,227.200453 L252.578385,227.200453 Z M166.789772,226.903352 C166.818637,221.097875 171.797757,216.705506 174.671926,212.06391 C179.982391,205.116868 186.820271,199.285669 194.656794,195.530092 C198.410288,195.86905 189.727972,200.055955 187.643395,201.404785 C183.136162,204.290342 180.284991,209.069116 176.015539,212.240558 C173.558576,216.72623 170.012382,220.601018 168.354275,225.485662 C168.203328,226.136367 167.61229,227.109077 166.789772,226.903352 L166.789772,226.903352 Z M254.845092,222.42281 C249.076528,214.444618 242.322192,207.033462 234.600757,200.979078 C229.582956,198.517114 224.730135,194.947579 218.922219,194.791012 C215.224225,192.345215 210.230848,196.953208 207.821556,194.499562 C212.431416,190.881016 218.789309,193.142898 224.227491,194.299223 C230.82397,196.675451 237.489643,199.659234 242.242996,205.111502 C247.887371,209.193708 250.889378,215.929035 255.796952,220.753048 C256.506676,221.531098 256.18032,223.077467 254.845092,222.42281 Z M165.538127,220.587013 C164.629824,217.634818 172.64548,210.570089 169.224397,216.160561 C167.731437,217.340039 167.984238,220.830602 165.538127,220.587013 Z M207.472444,219.983214 C208.93402,217.048984 217.329512,217.153554 210.921829,219.584072 C210.099501,219.870209 207.535746,222.101208 207.472444,219.983214 Z M255.75793,217.994432 C253.776023,213.938711 248.51285,208.757801 247.500094,206.254237 C251.825113,207.556393 256.394291,211.968128 258.903408,214.877554 C257.024731,213.285328 251.820919,211.683772 255.752943,215.314112 C256.89992,216.531477 259.564296,220.902197 255.757939,217.994432 L255.75793,217.994432 Z M165.074699,214.773913 C162.530293,211.52781 172.449472,207.051333 167.821979,212.028378 C167.19855,212.916089 166.780443,216.57629 165.074699,214.773913 Z M171.085566,212.763577 C169.68189,209.819613 176.467355,207.44428 172.863801,211.646397 C172.563486,212.234958 171.877823,213.320079 171.085566,212.763577 Z M257.736257,210.171346 C251.12179,206.159143 247.564463,198.735587 240.891197,194.796787 C236.94353,191.033883 232.404537,188.574208 227.224915,186.998871 C221.278555,184.70129 214.946371,184.1325 208.619297,184.491874 C203.459182,184.525484 198.093733,185.416406 193.234023,186.472411 C185.398078,189.257169 179.539725,195.443034 172.919506,200.255353 C168.10336,201.279686 175.962678,195.307676 177.74016,194.478563 C182.04106,190.0173 187.85991,187.454408 193.259402,184.740797 C198.641707,184.370911 203.905049,183.334989 209.25658,182.665106 C214.500967,181.849929 219.363928,183.690071 224.472907,184.3503 C229.115627,185.727533 233.870594,187.011632 237.682974,190.331787 C242.962935,193.055268 246.933677,197.571257 251.464379,201.318048 C251.168055,204.945382 262.372475,209.121304 257.736257,210.171346 L257.736257,210.171346 L257.736257,210.171346 Z M191.74887,210.012756 C194.567688,206.166869 199.760467,205.6135 203.662945,203.36577 C206.152075,201.096061 216.669832,201.746291 209.101066,203.368937 C203.047491,204.044827 198.124812,207.970922 192.480959,209.872462 L191.74887,210.012766 L191.74887,210.012766 L191.74887,210.012756 Z M169.502905,208.655838 C171.543466,201.754055 178.699095,198.615267 183.846847,194.427697 C188.664944,189.527618 195.428554,187.12965 202.180695,187.084087 C209.064909,185.08793 216.404745,185.877034 223.211018,187.744849 C225.521056,188.664736 234.103472,190.151738 232.24664,192.191594 C227.413787,190.949724 222.873893,188.514992 217.874068,188.07828 C211.924739,185.849471 205.694894,187.316521 199.788889,188.768549 C190.477731,189.677314 183.446139,196.422428 176.318379,201.825637 C174.011149,203.980688 172.800119,207.879014 169.502905,208.655838 L169.502905,208.655838 Z M174.194364,207.714043 C177.198488,202.196939 183.06044,199.337026 187.589259,195.318174 C194.538545,190.861947 202.844284,189.015354 210.97438,188.758622 C216.163299,188.584061 221.123784,190.28103 225.969442,191.633991 C229.129383,192.004184 233.925615,196.441439 235.612442,195.362145 C231.193331,188.970458 241.837669,198.312004 243.541449,200.050095 C246.494896,201.266677 249.752817,207.023742 244.604667,204.475861 C241.286096,199.616305 236.361239,197.031776 230.957058,195.246664 C222.480122,190.488718 212.425305,190.113689 202.987174,190.927084 C194.908397,191.992263 187.74105,196.472268 181.973141,202.138088 C178.480371,202.281041 177.48747,208.156039 174.194364,207.714043 L174.194364,207.714043 Z M183.841061,208.182195 C186.029219,203.032928 193.134727,201.395958 196.364219,198.215299 C196.600867,201.230379 200.831858,199.045268 196.709542,200.77084 C191.681778,201.963483 188.357643,206.879915 183.841061,208.182195 Z M258.188446,204.433411 C252.979617,199.913356 246.219142,194.099673 242.430444,189.806165 C248.439846,189.565491 251.605543,196.646706 255.843901,200.233998 C257.647264,200.66433 263.336593,208.115052 258.188446,204.433411 Z M164.623034,204.509916 C162.717614,201.201012 170.622002,200.648314 165.794463,203.713255 L165.254532,204.094981 L164.623034,204.509916 Z M167.185437,200.524414 C163.625607,197.311381 173.437724,194.746694 174.524318,191.221046 C177.007445,188.265594 181.484795,189.371172 176.830978,192.430696 C173.008219,193.97132 168.943084,199.702679 167.185437,200.524414 L167.185437,200.524414 Z M259.90415,199.957822 C255.597679,196.512167 252.344822,191.894344 247.80283,188.714984 C244.657203,183.952928 239.335322,182.649788 234.718548,180.033875 C231.76937,176.710837 224.292167,177.589322 223.254746,174.014352 C228.681567,174.753761 233.676255,177.215064 238.45973,179.810759 C245.216072,183.142628 250.648723,188.598167 256.256516,193.545366 C257.335495,194.038982 264.45494,203.972818 259.90415,199.957822 L259.90415,199.957822 Z M197.029902,197.50307 C198.709087,194.784748 207.858527,194.812132 205.806895,195.656286 C202.818801,195.977286 200.1314,198.170938 197.029902,197.50307 L197.029902,197.50307 Z M166.281059,194.38587 C166.147159,190.984289 176.548206,187.370203 170.853573,191.769103 C169.431846,192.213901 167.634528,195.308027 166.281059,194.38587 Z M197.029902,194.805506 C199.594371,192.665522 208.618078,190.527961 207.545118,192.6532 C204.154038,193.850658 200.558592,194.244453 197.029902,194.805506 Z M259.601536,193.448454 C255.005463,187.354791 248.437022,183.120477 241.99428,179.291205 C234.07623,175.060495 225.169782,170.344571 215.971044,173.010606 C210.513645,174.374809 204.542936,173.246318 199.403893,175.973255 C197.153858,176.341649 189.432044,180.497759 190.551718,177.62693 C196.195301,175.373428 201.707158,172.300716 207.937258,172.327429 C213.540715,171.868424 219.099196,170.242523 224.720765,170.774046 C230.700667,171.977096 236.480889,174.014168 241.755068,177.157423 C247.740769,179.600163 252.372641,184.392738 257.60055,188.055983 C258.682871,188.579502 263.089587,194.723274 259.601536,193.448454 L259.601536,193.448454 Z M165.532121,191.202691 C166.629376,185.362924 173.446591,183.636453 177.732048,180.701545 C184.679589,176.362976 192.15349,172.931399 199.773827,170.018597 C204.909404,168.666767 210.416775,167.874145 215.6546,168.790054 C213.519256,170.869691 206.492646,169.605605 202.499447,171.058659 C192.686795,173.85162 183.65101,178.954365 174.899146,184.110471 C172.014694,186.694873 167.81878,188.871692 165.532121,191.202691 Z M237.783423,188.205518 C234.508882,183.176532 245.338459,192.386546 238.34834,188.780525 C238.160033,188.588855 237.971728,188.397188 237.783423,188.205518 Z M173.289987,188.617963 C176.68079,184.348701 181.909066,182.305401 186.530895,179.878129 C192.03879,180.056909 182.534913,183.386828 180.917843,184.764212 C178.503419,186.009422 176.00771,188.846071 173.289987,188.617963 L173.289987,188.617963 Z M179.516605,188.611536 C183.177268,185.081299 188.241107,183.676609 192.319469,180.735541 C197.995707,178.169301 203.809714,175.78083 210.129791,175.665413 C215.289469,173.880369 220.161191,175.610756 225.068232,177.439805 C227.378632,177.974282 235.720935,181.417736 229.178977,180.035192 C219.859509,176.443436 209.497717,176.611266 199.929326,179.051657 C193.802327,181.482953 188.206436,184.989722 182.442759,188.111622 C181.50998,188.459614 180.513867,188.664408 179.516605,188.611536 L179.516605,188.611536 Z M244.175425,188.372622 C240.267055,185.675667 235.688154,184.865041 231.159989,184.17645 C223.919315,182.085494 216.341502,180.320524 208.779858,180.851884 C204.507684,180.655803 199.750001,183.881068 195.932451,182.673696 C200.913569,180.57624 206.416267,179.595896 211.746438,179.17923 C219.763695,178.604948 227.364363,181.538963 235.091984,183.177905 C236.818253,183.616129 246.696696,187.066987 244.175425,188.372622 L244.175425,188.372622 Z M165.527412,185.919013 C167.287516,179.688164 174.959129,178.56696 179.685823,175.39578 C187.766804,172.052373 195.053418,166.513042 203.945868,165.453087 C206.308781,164.460167 216.069832,165.210237 208.733416,166.467024 C203.499883,166.967881 198.3508,167.961641 193.5829,170.398723 C187.184197,172.232448 182.092503,176.902468 175.891511,179.24232 C172.261601,181.202162 169.01708,183.676235 165.527412,185.919013 L165.527412,185.919013 Z M259.259057,185.136765 C253.013967,181.053382 246.673259,177.178871 240.056565,173.757352 C235.449817,171.175422 230.158502,170.369905 225.352021,168.337487 C221.342069,169.262128 215.387458,167.187906 213.399955,165.634638 C218.707036,164.523159 224.621621,166.91517 229.970457,168.066466 C234.688279,169.917802 239.66568,171.502107 243.959536,174.117802 C245.24101,176.011463 252.440689,178.601512 248.301151,174.500036 C240.064203,169.598754 231.281813,165.255939 221.713856,163.787773 C211.746223,162.344534 201.17755,162.5182 191.996188,167.162884 C189.498436,167.733903 183.281556,173.057593 182.875371,169.209045 C187.014733,167.115957 192.344461,165.229365 197.388126,163.727883 C206.651907,160.564383 216.948559,160.010213 226.271705,163.21656 C235.228093,165.157239 243.515749,169.319018 250.856004,174.822017 C252.632833,179.390255 261.307359,181.594604 260.560201,186.025956 L260.08692,185.795257 L259.259057,185.136765 L259.259057,185.136765 L259.259057,185.136765 Z M259.464529,179.059121 C254.767259,175.360813 250.294065,171.381597 245.116366,168.373985 C238.413327,163.497941 230.120251,162.260826 222.366476,160.019162 C216.362448,158.980963 210.007838,158.099605 204.014847,159.726078 C198.439664,160.694788 193.085221,163.099949 187.456758,164.125152 C183.156463,165.980996 178.000501,170.41946 174.013606,170.342156 C179.322102,166.178502 185.238894,162.588281 191.924366,160.905242 C197.484725,158.996467 203.324278,159.017186 208.883845,157.056054 C214.126652,157.622799 219.63998,157.614747 224.799652,158.956598 C235.137535,161.149046 245.272116,165.429355 253.739579,171.999761 C256.260278,172.285781 263.686402,181.470305 259.529296,179.124127 L259.464529,179.059117 L259.464529,179.059121 L259.464529,179.059121 Z M165.508404,179.676213 C168.237898,175.005078 174.718519,174.915469 178.617011,171.584943 C182.475606,168.712815 183.00892,172.855025 178.914644,173.452611 C174.636653,176.155074 169.843466,177.066539 165.508404,179.676213 L165.508404,179.676213 Z M167.336167,171.688935 C167.893703,168.553032 178.443176,164.844171 172.496402,169.454151 C171.081912,170.696694 169.303119,171.903221 167.336167,171.688935 Z M258.014812,171.382908 C252.966049,169.628318 249.635135,164.857118 244.530479,163.102049 C235.599152,158.334406 225.516039,156.653572 215.579413,155.683512 C209.096134,153.849765 203.075638,156.650127 196.654515,156.793984 C191.057477,158.268851 185.796459,160.866074 180.272716,162.576773 C179.990684,158.621727 188.387476,159.286028 191.327242,156.547012 C195.848527,154.431449 201.27671,156.299266 205.820352,153.891206 C210.670116,152.747684 215.515557,154.048192 220.311519,154.343222 C225.084402,156.794496 230.300405,156.012073 235.339177,157.129821 C242.752285,159.416711 249.690325,163.308713 255.479414,168.483552 C262.379988,171.720902 251.394283,162.890381 249.421804,161.105525 C243.920747,156.133889 236.464628,154.866595 229.617374,153.087055 C221.951975,153.61442 214.298477,149.40074 206.764635,152.257132 C204.261883,150.775104 196.372587,156.301281 197.539666,152.583031 C202.964661,150.426829 208.967738,149.846878 214.751559,149.72606 C220.457744,149.998901 225.725057,152.498052 231.512789,152.106465 C239.60713,152.174756 246.899872,156.317276 252.718588,161.744203 C254.665863,162.39847 265.023253,173.499937 258.014812,171.382908 L258.014812,171.382908 Z M169.144923,166.41003 C171.500999,161.123561 183.261459,161.130357 173.711262,164.9689 C172.209404,165.514901 170.655589,165.892218 169.144923,166.41003 Z M170.848167,161.926791 C173.835975,156.886029 181.133205,156.345406 185.433256,152.810895 C185.959832,153.61016 184.525555,156.681552 183.412092,157.36383 C179.733113,156.675353 174.432609,160.946089 170.848167,161.926791 L170.848167,161.926791 Z M254.845135,161.141711 C253.159362,155.646633 246.507324,154.787003 242.575904,151.468763 C237.744759,150.028339 233.17253,148.007666 228.653859,145.779316 C223.604119,143.852045 218.11413,144.188154 212.857028,143.227647 C207.676074,143.897714 202.503146,144.230714 197.372937,145.655746 C191.331524,147.187178 185.437073,149.80991 180.308984,153.201915 C176.615662,150.142242 187.118867,148.184881 189.71373,146.320603 C195.516957,144.38892 201.327315,142.320425 207.51161,141.993273 C213.788688,140.989694 220.009701,142.347505 226.168518,143.237847 C234.71531,146.160007 243.195683,149.552086 250.875394,154.398997 C253.037899,154.757889 260.641733,161.709399 254.845135,161.141711 Z M186.490293,156.362925 C187.151226,152.162045 194.689094,155.819005 188.435415,155.740345 C187.681198,155.401495 187.089448,157.319833 186.490293,156.362925 Z M173.572605,155.853238 C172.108939,150.63046 182.538755,154.153843 175.460665,155.129241 C174.901027,155.454367 174.304997,156.415257 173.572605,155.853238 Z M188.362949,153.098022 C191.100071,149.542999 197.290618,148.158149 201.384058,147.600789 C201.053888,150.854629 194.044128,150.071722 191.423796,152.973146 C190.442767,153.307337 189.366524,153.375001 188.362949,153.098022 Z M251.5433,151.420952 C244.480908,147.651996 237.200832,144.361878 229.600946,141.865395 C224.371795,139.76557 218.451926,139.858922 212.88696,139.55505 C207.340219,140.538419 201.571341,139.526842 196.210739,141.349511 C193.093564,141.855755 184.899391,147.331471 184.4916,143.695202 C189.729537,142.696861 193.989988,138.647605 199.512154,138.631616 C205.505413,138.015723 211.523993,137.897009 217.483485,137.411082 C222.612912,137.810015 227.438402,138.512125 232.058041,140.855151 C237.832748,142.826614 243.265811,145.755159 249.143303,147.424448 C249.666542,148.419337 256.75897,153.122266 251.5433,151.420952 L251.5433,151.420952 Z M174.697852,150.803534 C174.982403,146.697346 186.718779,143.781089 180.115852,148.511475 C178.411265,149.503502 176.548604,150.158508 174.697852,150.803534 Z M230.983667,150.117775 C223.700704,148.449707 216.292702,147.380165 208.812689,147.965956 C206.147773,148.482959 201.560674,146.779649 206.778985,146.312772 C212.926147,146.020513 219.239741,145.741895 225.311704,146.881562 C226.312192,146.726759 235.021797,150.354206 230.983667,150.117775 Z M245.805713,143.840821 C239.907524,140.568867 233.374552,138.875713 227.129202,136.477192 C224.58529,136.093657 214.058713,135.17603 221.603549,134.085299 C228.230942,134.219388 234.113678,137.889091 240.462461,139.448586 C241.948234,139.396226 252.775191,145.605248 245.805713,143.840821 Z M193.599068,135.65173 C198.967264,134.863579 204.763677,131.890613 209.768648,132.996189 C203.842837,136.107772 197.259679,135.9421 191.276983,138.446065 C188.035113,139.906934 184.849625,141.531282 181.398124,142.444105 C184.067515,138.329023 189.609666,137.891586 193.599068,135.65173 Z" id="path2830" fill="#FFF3E0" fill-rule="nonzero" mask="url(#mask-2)"></path>
        </g>
    </g>
</svg>