<?xml version="1.0" encoding="UTF-8" standalone="no"?>
<svg width="825px" height="744px" viewBox="0 0 825 744" version="1.1" xmlns="http://www.w3.org/2000/svg" xmlns:xlink="http://www.w3.org/1999/xlink">
    <!-- Generator: Sketch 42 (36781) - http://www.bohemiancoding.com/sketch -->
    <title>Group 2</title>
    <desc>Created with Sketch.</desc>
    <defs>
        <polygon id="path-1" points="346.86634 503.604575 0.0083980986 503.604575 0.0083980986 0.725505341 346.86634 0.725505341 346.86634 503.604575"></polygon>
    </defs>
    <g id="Page-1" stroke="none" stroke-width="1" fill="none" fill-rule="evenodd">
        <g id="Group-2" transform="translate(7.000000, 7.000000)">
            <g id="Page-1" transform="translate(0.963007, 0.509173)">
                <path d="M594.420936,119.627933 C616.10743,72.1159887 696.907448,73.7946707 718.363235,120.456782" id="Stroke-1" stroke="#FFFFFF" stroke-width="3"></path>
                <path d="M597.763571,103.493701 C610.651725,85.1436096 632.79439,77.190854 655.744532,77.1960999" id="Stroke-3" stroke="#FFFFFF" stroke-width="3"></path>
                <path d="M713.727589,103.493701 C700.839436,85.1436096 678.69677,77.190854 655.746629,77.1960999" id="Stroke-5" stroke="#FFFFFF" stroke-width="3"></path>
                <path d="M600.751232,92.0424677 C613.906796,76.4464635 634.476457,69.6215723 655.743483,69.6268182" id="Stroke-7" stroke="#FFFFFF" stroke-width="3"></path>
                <path d="M710.739404,92.0424677 C697.58384,76.4464635 677.01418,69.6215723 655.747153,69.6268182" id="Stroke-9" stroke="#FFFFFF" stroke-width="3"></path>
                <path d="M604.169372,81.1520188 C617.319693,68.1684633 636.242941,62.4294695 655.748202,62.4294695" id="Stroke-11" stroke="#FFFFFF" stroke-width="3"></path>
                <path d="M707.321789,81.1520188 C694.171468,68.1684633 675.248219,62.4294695 655.742959,62.4294695" id="Stroke-13" stroke="#FFFFFF" stroke-width="3"></path>
                <path d="M610.914417,68.6453139 C623.398832,59.6591197 639.364832,55.6092996 655.745056,55.6145455" id="Stroke-15" stroke="#FFFFFF" stroke-width="3"></path>
                <path d="M700.576744,68.6453139 C688.092329,59.6591197 672.126329,55.6092996 655.746105,55.6145455" id="Stroke-17" stroke="#FFFFFF" stroke-width="3"></path>
                <path d="M597.763571,163.036024 C610.651725,181.386116 632.79439,189.338872 655.744532,189.333626" id="Stroke-19" stroke="#FFFFFF" stroke-width="3"></path>
                <path d="M712.261549,163.712218 C699.373395,182.06231 678.698868,189.338347 655.743483,189.333101" id="Stroke-21" stroke="#FFFFFF" stroke-width="3"></path>
                <path d="M600.751232,174.486733 C613.906796,190.082738 634.476457,196.907629 655.743483,196.902383" id="Stroke-23" stroke="#FFFFFF" stroke-width="3"></path>
                <path d="M710.739404,174.486733 C697.58384,190.082738 677.01418,196.907629 655.747153,196.902383" id="Stroke-25" stroke="#FFFFFF" stroke-width="3"></path>
                <path d="M604.169372,185.377182 C617.319693,198.360738 636.242941,204.099732 655.748202,204.099732" id="Stroke-27" stroke="#FFFFFF" stroke-width="3"></path>
                <path d="M707.321789,185.377182 C694.171468,198.360738 675.248219,204.099732 655.742959,204.099732" id="Stroke-29" stroke="#FFFFFF" stroke-width="3"></path>
                <path d="M610.914417,197.884412 C623.398832,206.870606 639.364832,210.920426 655.745056,210.91518" id="Stroke-31" stroke="#FFFFFF" stroke-width="3"></path>
                <path d="M700.576744,197.884412 C688.092329,206.870606 672.126329,210.920426 655.746105,210.91518" id="Stroke-33" stroke="#FFFFFF" stroke-width="3"></path>
                <path d="M619.051571,57.2711947 C629.999685,51.7210526 642.741025,49.1715545 655.744532,49.1768003" id="Stroke-35" stroke="#FFFFFF" stroke-width="3"></path>
                <path d="M692.439066,57.2711947 C681.490951,51.7210526 668.749612,49.1715545 655.746105,49.1768003" id="Stroke-37" stroke="#FFFFFF" stroke-width="3"></path>
                <path d="M592.683814,131.221854 C597.76462,128.200227 599.793796,122.156972 604.16675,116.108471 C608.544947,110.065216 619.870582,91.5525024 655.74558,91.5525024" id="Stroke-39" stroke="#FFFFFF" stroke-width="3"></path>
                <path d="M718.807347,131.221854 C713.726541,128.200227 711.697364,122.156972 707.324411,116.108471 C702.946214,110.065216 691.620579,91.5525024 655.74558,91.5525024" id="Stroke-41" stroke="#FFFFFF" stroke-width="3"></path>
                <path d="M605.019319,160.43774 C610.131584,167.000337 622.138855,182.223883 655.743483,182.223883" id="Stroke-43" stroke="#FFFFFF" stroke-width="3"></path>
                <path d="M706.471842,160.43774 C701.359576,167.000337 689.352306,182.223883 655.747678,182.223883" id="Stroke-45" stroke="#FFFFFF" stroke-width="3"></path>
                <path d="M614.585286,159.178728 C620.992659,167.740006 633.718269,175.047518 655.74558,175.047518" id="Stroke-47" stroke="#FFFFFF" stroke-width="3"></path>
                <path d="M699.926044,156.911983 C692.669249,165.976865 679.901692,175.046993 655.74558,175.046993" id="Stroke-49" stroke="#FFFFFF" stroke-width="3"></path>
                <path d="M627.032473,160.689542 C632.711021,165.725588 644.545261,167.488204 655.745056,167.488204" id="Stroke-51" stroke="#FFFFFF" stroke-width="3"></path>
                <path d="M694.135813,151.874363 C684.210153,164.637592 669.764724,167.491351 655.492327,167.491351" id="Stroke-53" stroke="#FFFFFF" stroke-width="3"></path>
                <path d="M591.928248,141.044767 C597.213544,139.156249 603.914545,130.663168 609.755636,122.563528 C621.757664,105.907856 630.823415,98.7314906 655.745056,98.7314906" id="Stroke-55" stroke="#FFFFFF" stroke-width="3"></path>
                <path d="M719.561865,141.044767 C714.276568,139.156249 707.575567,130.663168 701.734476,122.563528 C689.732448,105.907856 680.666697,98.7314906 655.745056,98.7314906" id="Stroke-57" stroke="#FFFFFF" stroke-width="3"></path>
                <path d="M625.287487,46.9735303 C633.414679,44.4607533 642.039989,41.9479763 656.385793,41.9479763" id="Stroke-59" stroke="#FFFFFF" stroke-width="3"></path>
                <path d="M686.202625,46.9735303 C678.075434,44.4607533 669.450123,41.9479763 655.104319,41.9479763" id="Stroke-61" stroke="#FFFFFF" stroke-width="3"></path>
                <path d="M592.683814,149.356341 C618.738019,138.397695 615.450438,105.532251 656.275159,105.532251 C671.082378,105.532251 683.084405,117.540072 683.084405,132.35444 C683.084405,147.168808 671.082378,159.17663 656.275159,159.17663 C629.361045,159.17663 620.788168,146.413401 594.728721,155.10058" id="Stroke-63" stroke="#FFFFFF" stroke-width="3"></path>
                <path d="M718.806298,149.356341 C702.153419,142.353089 697.486838,126.400365 685.631625,115.79844" id="Stroke-65" stroke="#FFFFFF" stroke-width="3"></path>
                <path d="M611.797397,145.254062 C619.279657,145.254062 625.561189,146.91176 632.052456,148.621917 C639.062815,150.468467 646.309124,152.377968 656.271488,152.377968 C667.308739,152.377968 676.285354,143.39702 676.285354,132.35444 C676.285354,121.317107 667.308739,112.330912 656.271488,112.330912 C637.400673,112.330912 628.528925,121.547925 620.050429,133.214765 C617.17183,137.180651 614.099227,141.398339 610.297799,145.275045 C610.80116,145.259307 611.304522,145.254062 611.797397,145.254062 Z" id="Stroke-67" stroke="#FFFFFF" stroke-width="3"></path>
                <path d="M656.273586,145.578257 C647.186861,145.578257 640.679864,143.862854 633.784859,142.047779 C630.544469,141.1927 627.251645,140.321884 623.764818,139.655657 C624.37829,138.826808 624.970788,138.008451 625.547557,137.216323 C633.742912,125.937679 641.775724,119.133771 656.273586,119.133771 C663.561842,119.133771 669.49207,125.066862 669.49207,132.353391 C669.49207,139.645166 663.561842,145.578257 656.273586,145.578257 Z" id="Stroke-69" stroke="#FFFFFF" stroke-width="3"></path>
                <path d="M656.273586,138.778021 C648.067744,138.778021 642.252869,137.246224 635.520408,135.467871 C635.467974,135.457379 635.415541,135.441641 635.363107,135.431149 C637.717371,132.472473 644.91649,125.930859 656.273586,125.930859 C659.812847,125.930859 662.691446,128.816093 662.691446,132.357063 C662.691446,135.898033 659.812847,138.778021 656.273586,138.778021 Z" id="Stroke-71" stroke="#FFFFFF" stroke-width="3"></path>
                <path d="M718.364808,156.408378 C702.566595,154.645762 693.631928,135.25174 690.360077,131.222904 C690.360077,131.222904 692.441687,142.554007 685.630576,150.113321" id="Stroke-73" stroke="#FFFFFF" stroke-width="3"></path>
                <path d="M303.368365,240.487785 L27.4528199,240.487785 C12.6246271,240.487785 0.491515988,228.354062 0.491515988,213.518711 L0.491515988,27.4630497 C0.491515988,12.6329442 12.6246271,0.493975531 27.4528199,0.493975531 L303.368365,0.493975531 C318.196558,0.493975531 330.324425,12.6329442 330.324425,27.4630497 L330.324425,213.518711 C330.324425,228.354062 318.196558,240.487785 303.368365,240.487785 Z" id="Stroke-75" stroke="#FFFFFF" stroke-width="15"></path>
                <path d="M781.925741,240.487785 L506.010196,240.487785 C491.182003,240.487785 479.048892,228.354062 479.048892,213.518711 L479.048892,27.4630497 C479.048892,12.6329442 491.182003,0.493975531 506.010196,0.493975531 L781.925741,0.493975531 C796.753934,0.493975531 808.881801,12.6329442 808.881801,27.4630497 L808.881801,213.518711 C808.881801,228.354062 796.753934,240.487785 781.925741,240.487785 Z" id="Stroke-77" stroke="#FFFFFF" stroke-width="15"></path>
                <path d="M169.781449,399.45634 L169.781449,399.45634 C149.206545,399.45634 132.370149,382.611816 132.370149,362.026979 L132.370149,121.618745 C132.370149,101.028662 149.206545,84.1893839 169.781449,84.1893839 L169.781449,84.1893839 C190.356353,84.1893839 207.192748,101.028662 207.192748,121.618745 L207.192748,362.026979 C207.192748,382.611816 190.356353,399.45634 169.781449,399.45634" id="Fill-79" fill="#FFD7B6"></path>
                <path d="M243.245496,569.084 L243.245496,569.084 C222.670592,569.084 205.834196,552.239476 205.834196,531.654639 L205.834196,291.246405 C205.834196,270.656322 222.670592,253.817044 243.245496,253.817044 L243.245496,253.817044 C263.8204,253.817044 280.656796,270.656322 280.656796,291.246405 L280.656796,531.654639 C280.656796,552.239476 263.8204,569.084 243.245496,569.084" id="Fill-81" fill="#FFD7B6"></path>
                <path d="M313.163991,539.241757 L313.163991,539.241757 C295.268438,539.241757 280.623763,524.590011 280.623763,506.685819 L280.623763,315.305589 C280.623763,297.401397 295.268438,282.749652 313.163991,282.749652 L313.163991,282.749652 C331.059543,282.749652 345.704219,297.401397 345.704219,315.305589 L345.704219,506.685819 C345.704219,524.590011 331.059543,539.241757 313.163991,539.241757" id="Fill-83" fill="#FFD7B6"></path>
                <path d="M378.2413,566.293716 L378.2413,566.293716 C360.345748,566.293716 345.701073,551.64197 345.701073,533.737779 L345.701073,342.357548 C345.701073,324.453356 360.345748,309.801611 378.2413,309.801611 L378.2413,309.801611 C396.136853,309.801611 410.781528,324.453356 410.781528,342.357548 L410.781528,533.737779 C410.781528,551.64197 396.136853,566.293716 378.2413,566.293716" id="Fill-85" fill="#FFD7B6"></path>
                <g id="Group-89" transform="translate(63.869770, 295.475110)">
                    <mask id="mask-2" fill="white">
                        <use xlink:href="#path-1"></use>
                    </mask>
                    <g id="Clip-88"></g>
                    <path d="M70.1195256,40.3948574 C70.1195256,40.3948574 49.4082945,3.30123291 19.0021099,25.4598342 C19.0021099,25.4598342 1.37396842,38.9522401 0.0526443085,56.7724979 C-1.2686798,74.5980015 27.3757393,107.353282 36.1898101,182.495282 C36.1898101,182.495282 36.1898101,215.255809 54.2531496,235.483926 C72.3217325,255.717289 108.443168,283.17423 108.888853,307.740691 C109.329294,332.307151 115.374876,440.161538 115.374876,440.161538 L327.814431,440.161538 C327.814431,440.161538 319.1262,303.884968 322.20929,290.880429 C325.292379,277.87589 345.982637,259.09039 346.86352,232.593445 C347.744403,206.101746 141.948172,3.78385396 141.948172,3.78385396 L68.4993306,0.725505341 L70.559967,42.3200957" id="Fill-87" fill="#FFD7B6" mask="url(#mask-2)"></path>
                </g>
                <path d="M106.302836,183.690107 C106.302836,183.690107 73.5319009,131.026708 105.311843,68.4328557" id="Stroke-90" stroke="#FF0000" stroke-width="15" stroke-linecap="round"></path>
                <path d="M234.909619,183.690107 C234.909619,183.690107 267.680554,131.026708 235.900612,68.4328557" id="Stroke-92" stroke="#FF0000" stroke-width="15" stroke-linecap="round"></path>
                <path d="M207.306529,281.585591 L207.269826,378.497996 L210.006854,378.230456 C211.674239,346.193861 213.89742,268.565314 218.904818,262.443371 C218.904818,262.443371 208.323739,273.606606 207.306529,281.585591" id="Fill-100" fill="#FBB88B"></path>
                <path d="M280.448111,314.962508 L280.411407,411.874914 L283.148436,411.607374 C284.815821,379.570779 286.687697,299.875355 289.146828,293.617019 C289.146828,293.617019 281.328993,300.767154 280.448111,314.962508" id="Fill-102" fill="#FBB88B"></path>
                <path d="M345.705267,341.016701 L345.668564,437.929106 L348.405592,437.661567 C350.072977,405.624971 350.518662,325.478401 355.526061,319.356458 C355.526061,319.356458 346.533716,327.901998 345.705267,341.016701" id="Fill-104" fill="#FBB88B"></path>
                <path d="M132.59404,334.749972 L132.630743,431.662377 L129.893715,431.394837 C128.22633,399.358242 121.908093,324.247718 116.900694,318.125775 C116.900694,318.125775 132.148355,328.974257 132.59404,334.749972" id="Fill-106" fill="#FBB88B"></path>
            </g>
            <path d="M353.576643,124 L461.706002,124" id="Path-2" stroke="#FFFFFF" stroke-width="14" stroke-dasharray="12"></path>
        </g>
    </g>
</svg>