<?xml version="1.0" encoding="UTF-8"?>
<svg width="451px" height="696px" viewBox="0 0 451 696" version="1.1" xmlns="http://www.w3.org/2000/svg" xmlns:xlink="http://www.w3.org/1999/xlink">
    <!-- Generator: Sketch 48.1 (47250) - http://www.bohemiancoding.com/sketch -->
    <title>Group 2</title>
    <desc>Created with Sketch.</desc>
    <defs>
        <rect id="path-1" x="0" y="0" width="396" height="233" rx="14"></rect>
        <rect id="path-3" x="0" y="0" width="396" height="233" rx="14"></rect>
        <linearGradient x1="50%" y1="100%" x2="50%" y2="-75.5510475%" id="linearGradient-5">
            <stop stop-color="#FFFFFF" offset="0%"></stop>
            <stop stop-color="#C8E0F2" offset="100%"></stop>
        </linearGradient>
        <rect id="path-6" x="0" y="0" width="396" height="233" rx="14"></rect>
        <linearGradient x1="50%" y1="11.1304335%" x2="50%" y2="132.166223%" id="linearGradient-8">
            <stop stop-color="#FFFFFF" offset="0%"></stop>
            <stop stop-color="#FFEFEF" offset="100%"></stop>
        </linearGradient>
        <rect id="path-9" x="0" y="0" width="396" height="233" rx="14"></rect>
        <rect id="path-11" x="0" y="0" width="396" height="233" rx="14"></rect>
        <rect id="path-13" x="0" y="0" width="396" height="233" rx="14"></rect>
        <rect id="path-15" x="0" y="0" width="396" height="233" rx="14"></rect>
    </defs>
    <g id="Page-1" stroke="none" stroke-width="1" fill="none" fill-rule="evenodd">
        <g id="Group-2" transform="translate(6.000000, 0.000000)">
            <g id="hand1">
                <path d="M281.495541,252.472342 L43.317892,352.101551 L84.046216,449.722771 C115.409552,524.884405 178.212766,566.573169 225.470175,546.803674 L291.802003,519.059704 C339.06324,499.29021 361.574422,444.4039 341.830255,397.082037 L281.495541,252.472342 Z" id="Fill-11" fill="#FFD7B6" fill-rule="nonzero"></path>
                <g id="Group" transform="translate(136.000000, 201.000000) rotate(90.000000) translate(-136.000000, -201.000000) translate(-64.500000, 84.500000)">
                    <g id="Path" fill="#FFFFFF" fill-rule="nonzero" stroke="#E2E2E2">
                        <rect id="path-1" x="0" y="0" width="396" height="233" rx="14"></rect>
                    </g>
                    <g id="Stroke-28-Clipped">
                        <mask id="mask-2" fill="white">
                            <use xlink:href="#path-1"></use>
                        </mask>
                        <g id="path-1"></g>
                        <path d="M-4.58306721,4.05217391 L391.391396,4.05217391" id="Stroke-28" stroke="#FF0000" stroke-width="12" stroke-linecap="round" mask="url(#mask-2)"></path>
                    </g>
                    <g id="Rectangle-Clipped">
                        <mask id="mask-4" fill="white">
                            <use xlink:href="#path-3"></use>
                        </mask>
                        <g id="path-1"></g>
                        <rect id="Rectangle" fill="url(#linearGradient-5)" fill-rule="nonzero" mask="url(#mask-4)" x="-10.1020408" y="-2.02608696" width="413.173469" height="87.1217391"></rect>
                    </g>
                    <g id="Rectangle-Copy-Clipped">
                        <mask id="mask-7" fill="white">
                            <use xlink:href="#path-6"></use>
                        </mask>
                        <g id="path-1"></g>
                        <rect id="Rectangle-Copy" fill="url(#linearGradient-8)" fill-rule="nonzero" mask="url(#mask-7)" x="-10.1020408" y="132.708696" width="413.173469" height="100.291304"></rect>
                    </g>
                    <g id="Nació-en:-Santiago-P-Clipped">
                        <mask id="mask-10" fill="white">
                            <use xlink:href="#path-9"></use>
                        </mask>
                        <g id="path-1"></g>
                        <text id="Nació-en:" fill="#4A4A4A" mask="url(#mask-10)" font-family="HelveticaNeue, Helvetica Neue" font-size="11" font-weight="normal">
                            <tspan x="18.1836735" y="110.291304">Nació en:</tspan>
                        </text>
                        <text id="Santiago" fill="#4A4A4A" mask="url(#mask-10)" font-family="HelveticaNeue-Bold, Helvetica Neue" font-size="11" font-weight="bold">
                            <tspan x="68.3999082" y="110.278261">Santiago</tspan>
                        </text>
                        <text id="Profesión:" fill="#4A4A4A" mask="url(#mask-10)" font-family="HelveticaNeue, Helvetica Neue" font-size="11" font-weight="normal">
                            <tspan x="18.1836735" y="123.46087">Profesión:</tspan>
                        </text>
                        <text id="Tecnólogo-Médico" fill="#4A4A4A" mask="url(#mask-10)" font-family="HelveticaNeue-Bold, Helvetica Neue" font-size="11" font-weight="bold">
                            <tspan x="71.478" y="123.447826">Tecnólogo Médico</tspan>
                        </text>
                        <text id="Inscrito-en-el-Registro-de-Discapacidad-|" fill="#4A4A4A" mask="url(#mask-10)" font-family="HelveticaNeue, Helvetica Neue" font-size="11" font-weight="normal">
                            <tspan x="18.1836735" y="136.630435">Inscrito en el Registro de Discapacidad |</tspan>
                        </text>
                        <text id="Donante" fill="#4A4A4A" mask="url(#mask-10)" font-family="HelveticaNeue-Bold, Helvetica Neue" font-size="11" font-weight="bold">
                            <tspan x="218.426327" y="136.617391">Donante</tspan>
                        </text>
                    </g>
                    <g id="IDCHL10000000000017&lt;-Clipped">
                        <mask id="mask-12" fill="white">
                            <use xlink:href="#path-11"></use>
                        </mask>
                        <g id="path-1"></g>
                        <text id="IDCHL10000000000017&lt;&lt;&lt;&lt;&lt;&lt;&lt;&lt;&lt;&lt;&lt;&lt;&lt;&lt;&lt;" fill="#8A8A8A" mask="url(#mask-12)" font-family="Ayuthaya" font-size="12" font-weight="normal" letter-spacing="3.4000001">
                            <tspan x="18.1836735" y="175.086957">IDCHL10000000000017&lt;&lt;&lt;&lt;&lt;&lt;&lt;&lt;&lt;&lt;&lt;&lt;&lt;&lt;</tspan>
                            <tspan x="367.983677" y="175.086957">&lt;</tspan>
                        </text>
                        <text id="83465253F23763CHL1234567723&lt;K&lt;2EE12" fill="#8A8A8A" mask="url(#mask-12)" font-family="Ayuthaya" font-size="12" font-weight="normal" letter-spacing="3.20000005">
                            <tspan x="18.1836735" y="192.308696">83465253F23763CHL1234567723&lt;K&lt;2EE1</tspan>
                            <tspan x="371.783675" y="192.308696">2</tspan>
                        </text>
                        <text id="VIDAL&lt;FUENTES&lt;ROBERTO&lt;ALEJANDRO" fill="#8A8A8A" mask="url(#mask-12)" font-family="Ayuthaya" font-size="12" font-weight="normal" letter-spacing="4.5999999">
                            <tspan x="18.1836735" y="209.530435">VIDAL&lt;FUENTES&lt;ROBERTO&lt;ALEJANDR</tspan>
                            <tspan x="372.183671" y="209.530435">O</tspan>
                        </text>
                    </g>
                    <g id="qr-code-(1)-Clipped">
                        <mask id="mask-14" fill="white">
                            <use xlink:href="#path-13"></use>
                        </mask>
                        <g id="path-1"></g>
                        <g id="qr-code-(1)" mask="url(#mask-14)">
                            <g transform="translate(19.193878, 18.234783)" id="Group">
                                <g>
                                    <rect id="Rectangle-path" fill="#000000" fill-rule="nonzero" x="5.85918367" y="5.87565217" width="5.85918367" height="5.87565217"></rect>
                                    <path d="M41.0142857,0 L41.0142857,2.93782609 L38.0846939,2.93782609 L38.0846939,5.87565217 L41.0142857,5.87565217 L41.0142857,17.6269565 L43.9438776,17.6269565 L43.9438776,20.5647826 L41.0142857,20.5647826 L41.0142857,23.5026087 L43.9438776,23.5026087 L46.8734694,23.5026087 L46.8734694,17.6269565 L55.6622449,17.6269565 L55.6622449,20.5647826 L58.5918367,20.5647826 L58.5918367,17.6269565 L58.5918367,0 L41.0142857,0 Z M55.6622449,14.6891304 L43.9438776,14.6891304 L43.9438776,2.93782609 L55.6622449,2.93782609 L55.6622449,14.6891304 Z" id="Shape" fill="#000000" fill-rule="nonzero"></path>
                                    <rect id="Rectangle-path" fill="#000000" fill-rule="nonzero" x="46.8734694" y="5.87565217" width="5.85918367" height="5.87565217"></rect>
                                    <rect id="Rectangle-path" fill="#000000" fill-rule="nonzero" x="5.85918367" y="47.0052174" width="5.85918367" height="5.87565217"></rect>
                                    <rect id="Rectangle-path" fill="#000000" fill-rule="nonzero" x="41.0142857" y="41.1295652" width="2.92959184" height="2.93782609"></rect>
                                    <rect id="Rectangle-path" fill="#000000" fill-rule="nonzero" x="26.3663265" y="55.8186957" width="2.92959184" height="2.93782609"></rect>
                                    <rect id="Rectangle-path" fill="#000000" fill-rule="nonzero" x="29.2959184" y="44.0673913" width="2.92959184" height="2.93782609"></rect>
                                    <rect id="Rectangle-path" fill="#000000" fill-rule="nonzero" x="29.2959184" y="49.9430435" width="2.92959184" height="2.93782609"></rect>
                                    <rect id="Rectangle-path" fill="#000000" fill-rule="nonzero" x="55.6622449" y="35.253913" width="2.92959184" height="2.93782609"></rect>
                                    <rect id="Rectangle-path" fill="#000000" fill-rule="nonzero" x="0" y="35.253913" width="2.92959184" height="2.93782609"></rect>
                                    <rect id="Rectangle-path" fill="#000000" fill-rule="nonzero" x="0" y="20.5647826" width="2.92959184" height="2.93782609"></rect>
                                    <polygon id="Shape" fill="#000000" fill-rule="nonzero" points="32.2255102 2.93782609 32.2255102 5.87565217 26.3663265 5.87565217 26.3663265 8.81347826 35.155102 8.81347826 35.155102 5.87565217 35.155102 2.93782609"></polygon>
                                    <path d="M55.6622449,23.5026087 L55.6622449,26.4404348 L49.8030612,26.4404348 L49.8030612,29.3782609 L41.0142857,29.3782609 L41.0142857,26.4404348 L38.0846939,26.4404348 L38.0846939,29.3782609 L32.2255102,29.3782609 L32.2255102,32.316087 L41.0142857,32.316087 L41.0142857,35.253913 L35.155102,35.253913 L32.2255102,35.253913 L32.2255102,32.316087 L29.2959184,32.316087 L29.2959184,35.253913 L26.3663265,35.253913 L26.3663265,32.316087 L23.4367347,32.316087 L23.4367347,35.253913 L20.5071429,35.253913 L20.5071429,38.1917391 L26.3663265,38.1917391 L26.3663265,41.1295652 L29.2959184,41.1295652 L29.2959184,38.1917391 L35.155102,38.1917391 L35.155102,41.1295652 L32.2255102,41.1295652 L32.2255102,44.0673913 L35.155102,44.0673913 L35.155102,49.9430435 L38.0846939,49.9430435 L38.0846939,52.8808696 L41.0142857,52.8808696 L41.0142857,49.9430435 L49.8030612,49.9430435 L49.8030612,44.0673913 L52.7326531,44.0673913 L52.7326531,41.1295652 L49.8030612,41.1295652 L49.8030612,35.253913 L43.9438776,35.253913 L43.9438776,32.316087 L49.8030612,32.316087 L49.8030612,35.253913 L52.7326531,35.253913 L52.7326531,32.316087 L55.6622449,32.316087 L55.6622449,29.3782609 L58.5918367,29.3782609 L58.5918367,26.4404348 L58.5918367,23.5026087 L55.6622449,23.5026087 Z M46.8734694,38.1917391 L46.8734694,47.0052174 L38.0846939,47.0052174 L38.0846939,38.1917391 L46.8734694,38.1917391 Z" id="Shape" fill="#000000" fill-rule="nonzero"></path>
                                    <polygon id="Shape" fill="#000000" fill-rule="nonzero" points="38.0846939 17.6269565 35.155102 17.6269565 35.155102 20.5647826 32.2255102 20.5647826 32.2255102 23.5026087 32.2255102 26.4404348 35.155102 26.4404348 35.155102 23.5026087 38.0846939 23.5026087 38.0846939 20.5647826 41.0142857 20.5647826 41.0142857 17.6269565"></polygon>
                                    <rect id="Rectangle-path" fill="#000000" fill-rule="nonzero" x="32.2255102" y="55.8186957" width="5.85918367" height="2.93782609"></rect>
                                    <rect id="Rectangle-path" fill="#000000" fill-rule="nonzero" x="23.4367347" y="2.93782609" width="2.92959184" height="2.93782609"></rect>
                                    <rect id="Rectangle-path" fill="#000000" fill-rule="nonzero" x="46.8734694" y="23.5026087" width="2.92959184" height="2.93782609"></rect>
                                    <rect id="Rectangle-path" fill="#000000" fill-rule="nonzero" x="49.8030612" y="20.5647826" width="2.92959184" height="2.93782609"></rect>
                                    <rect id="Rectangle-path" fill="#000000" fill-rule="nonzero" x="11.7183673" y="35.253913" width="2.92959184" height="2.93782609"></rect>
                                    <path d="M17.577551,55.8186957 L17.577551,44.0673913 L20.5071429,44.0673913 L20.5071429,41.1295652 L20.5071429,38.1917391 L17.577551,38.1917391 L17.577551,41.1295652 L8.78877551,41.1295652 L8.78877551,38.1917391 L5.85918367,38.1917391 L2.92959184,38.1917391 L2.92959184,41.1295652 L0,41.1295652 L0,58.7565217 L17.577551,58.7565217 L23.4367347,58.7565217 L23.4367347,55.8186957 L17.577551,55.8186957 Z M14.6479592,55.8186957 L2.92959184,55.8186957 L2.92959184,44.0673913 L14.6479592,44.0673913 L14.6479592,55.8186957 Z" id="Shape" fill="#000000" fill-rule="nonzero"></path>
                                    <rect id="Rectangle-path" fill="#000000" fill-rule="nonzero" x="17.577551" y="17.6269565" width="2.92959184" height="2.93782609"></rect>
                                    <path d="M20.5071429,0 L17.577551,0 L0,0 L0,17.6269565 L2.92959184,17.6269565 L2.92959184,20.5647826 L5.85918367,20.5647826 L5.85918367,17.6269565 L8.78877551,17.6269565 L8.78877551,20.5647826 L11.7183673,20.5647826 L11.7183673,17.6269565 L17.577551,17.6269565 L17.577551,11.7513043 L20.5071429,11.7513043 L20.5071429,8.81347826 L17.577551,8.81347826 L17.577551,2.93782609 L20.5071429,2.93782609 L23.4367347,2.93782609 L23.4367347,0 L20.5071429,0 Z M14.6479592,14.6891304 L2.92959184,14.6891304 L2.92959184,2.93782609 L14.6479592,2.93782609 L14.6479592,14.6891304 Z" id="Shape" fill="#000000" fill-rule="nonzero"></path>
                                    <rect id="Rectangle-path" fill="#000000" fill-rule="nonzero" x="35.155102" y="8.81347826" width="2.92959184" height="2.93782609"></rect>
                                    <rect id="Rectangle-path" fill="#000000" fill-rule="nonzero" x="29.2959184" y="0" width="2.92959184" height="2.93782609"></rect>
                                    <path d="M35.155102,17.6269565 L35.155102,14.6891304 L32.2255102,14.6891304 L32.2255102,11.7513043 L29.2959184,11.7513043 L29.2959184,14.6891304 L23.4367347,14.6891304 L23.4367347,11.7513043 L20.5071429,11.7513043 L20.5071429,14.6891304 L20.5071429,17.6269565 L23.4367347,17.6269565 L23.4367347,23.5026087 L14.6479592,23.5026087 L14.6479592,20.5647826 L11.7183673,20.5647826 L11.7183673,23.5026087 L2.92959184,23.5026087 L2.92959184,26.4404348 L8.78877551,26.4404348 L8.78877551,29.3782609 L0,29.3782609 L0,32.316087 L8.78877551,32.316087 L8.78877551,35.253913 L11.7183673,35.253913 L11.7183673,32.316087 L14.6479592,32.316087 L14.6479592,35.253913 L17.577551,35.253913 L17.577551,32.316087 L23.4367347,32.316087 L23.4367347,29.3782609 L20.5071429,29.3782609 L20.5071429,26.4404348 L23.4367347,26.4404348 L26.3663265,26.4404348 L26.3663265,29.3782609 L29.2959184,29.3782609 L32.2255102,29.3782609 L32.2255102,26.4404348 L29.2959184,26.4404348 L29.2959184,23.5026087 L26.3663265,23.5026087 L26.3663265,17.6269565 L35.155102,17.6269565 Z M17.577551,29.3782609 L11.7183673,29.3782609 L11.7183673,26.4404348 L17.577551,26.4404348 L17.577551,29.3782609 Z" id="Shape" fill="#000000" fill-rule="nonzero"></path>
                                    <polygon id="Shape" fill="#000000" fill-rule="nonzero" points="26.3663265 47.0052174 26.3663265 44.0673913 26.3663265 41.1295652 23.4367347 41.1295652 23.4367347 44.0673913 20.5071429 44.0673913 20.5071429 47.0052174 23.4367347 47.0052174 23.4367347 49.9430435 20.5071429 49.9430435 20.5071429 52.8808696 26.3663265 52.8808696 26.3663265 49.9430435 29.2959184 49.9430435 29.2959184 47.0052174"></polygon>
                                    <polygon id="Shape" fill="#000000" fill-rule="nonzero" points="52.7326531 52.8808696 52.7326531 49.9430435 49.8030612 49.9430435 49.8030612 52.8808696 41.0142857 52.8808696 41.0142857 55.8186957 46.8734694 55.8186957 46.8734694 58.7565217 49.8030612 58.7565217 49.8030612 55.8186957 55.6622449 55.8186957 55.6622449 58.7565217 58.5918367 58.7565217 58.5918367 55.8186957 58.5918367 52.8808696"></polygon>
                                    <polygon id="Shape" fill="#000000" fill-rule="nonzero" points="55.6622449 41.1295652 55.6622449 44.0673913 52.7326531 44.0673913 52.7326531 47.0052174 58.5918367 47.0052174 58.5918367 44.0673913 58.5918367 41.1295652"></polygon>
                                </g>
                            </g>
                        </g>
                    </g>
                    <g id="Fingerprint_picture-Clipped" transform="translate(5.000000, 0.000000)">
                        <mask id="mask-16" fill="white">
                            <use xlink:href="#path-15"></use>
                        </mask>
                        <g id="path-1"></g>
                        <g id="Fingerprint_picture" mask="url(#mask-16)">
                            <g transform="translate(285.010204, 15.195652)" id="path2830">
                                <g transform="translate(37.598241, 50.235923) rotate(7.000000) translate(-37.598241, -50.235923) translate(5.598241, 3.735923)">
                                    <path d="M18.2500762,92.0895369 C16.5964152,90.8067869 15.55628,86.7522294 17.9554588,90.126955 C18.4536827,90.595699 20.2899099,92.4115034 18.2500762,92.0895369 Z M21.8337641,91.6739718 C18.7297418,89.9925049 17.1716398,86.3963113 15.8748846,83.2823677 C14.6585352,79.2830151 14.897079,75.1673755 13.8226954,71.1223241 C12.958099,69.796563 13.6285214,64.0563325 14.9249685,65.6484396 C13.9310983,70.6495728 15.9544749,75.5683231 16.3446854,80.5292236 C17.4222605,84.0177501 18.6711566,87.588572 21.3276824,90.2224325 C22.0254973,90.7694113 23.5669462,93.2408466 21.8337641,91.6739718 Z M22.7554945,89.7287605 C19.9088886,86.7904303 18.4869034,82.6769516 17.3957162,78.8243781 C16.5911119,74.8904785 15.6388597,70.9692699 15.9467928,66.9332303 C16.0974036,63.5626219 17.0090378,59.2008075 19.4949772,57.1257692 C18.5199235,60.5063631 16.304582,64.5519726 16.7887353,68.5795168 C16.9696245,72.2301197 17.5048579,75.6562463 18.6484585,79.1736012 C19.7416602,82.7561568 21.151014,86.2960116 23.4116824,89.3089863 C26.5307415,90.2340817 23.6889227,92.1862745 22.7554945,89.7287605 Z M30.0529551,90.1898107 C26.1927776,88.1398369 25.0547577,83.4644949 23.2749625,79.9307712 C24.6365339,76.2552047 27.1133297,84.3900638 27.586114,86.168816 C28.07528,88.2784398 31.3432302,89.7806883 31.8837093,90.4929669 C31.2730784,90.5790824 30.5720294,90.5809955 30.0529551,90.1898107 Z M24.7464322,88.9117061 C22.2965037,86.0545016 21.3421706,82.3550579 20.1618351,78.9311575 C19.5930463,75.4223187 22.1734033,77.9165523 21.7165804,79.9506486 C22.145278,83.1840123 25.8617333,86.3512922 25.1285299,89.1903053 C25.0011645,89.0974384 24.8737976,89.004573 24.7464322,88.9117061 Z M32.8550155,89.0024818 C30.9884362,88.5090517 26.7532148,84.6673452 28.8060618,84.0753846 C29.2582273,86.0802622 33.353182,87.3406785 32.8550155,89.0024818 Z M36.8764044,89.0024818 C33.364318,87.9262617 31.251824,84.5604099 28.4832866,82.3980213 C31.2229717,82.2408991 33.817249,86.5256188 36.703712,87.9454593 C37.1373485,88.2551934 38.207622,89.9480304 36.8764044,89.0024818 Z M38.6856402,87.3699046 C36.9074734,86.9262918 32.1067902,83.5966357 34.2865293,83.0780684 C36.0863546,84.3152458 39.0643771,86.6256765 39.8167008,87.6383077 C39.4337299,87.7349147 38.9567588,87.7024814 38.6856402,87.3699046 Z M11.9896832,86.3541833 C10.0242428,83.3855049 9.56395279,79.677652 10.0346547,76.2717679 C9.75005385,72.9796686 11.4334463,70.0027709 11.3878671,66.7075681 C12.5516394,63.2868499 12.5790392,59.4816523 14.494392,56.2985542 C15.5815369,54.340404 17.2208706,52.062423 19.5386243,52.3534477 C19.1339685,49.8170312 21.6672184,52.075877 22.7028496,49.6832207 C26.3922356,47.4069554 30.6728829,46.4921155 34.8765915,45.7198012 C40.8710808,47.1444667 45.2799563,51.7626403 48.7502919,56.6199047 C51.5631624,59.5431857 53.0464508,63.500302 55.9960722,66.2989756 C57.2034358,67.9662258 56.0833652,70.5832752 54.9423204,67.5563539 C52.8872215,64.6034982 49.9008681,62.1638238 48.5414219,58.8500096 C46.4516393,55.388854 43.9408619,52.4910532 41.0259846,49.7575149 C37.6589816,47.4239921 33.2164828,46.0277572 29.2813458,47.8912193 C24.4471735,49.1305384 20.181035,52.2044601 17.7317216,56.6069094 C15.4044408,57.6474132 20.7379003,51.1839421 16.9872244,54.3931703 C14.3578875,57.0896521 14.1073965,61.1494516 12.9282747,64.563693 C12.5107367,68.5754428 11.1612216,72.0724039 11.0263334,76.0098818 C10.8612728,79.665657 11.8164466,83.3684341 13.0082013,86.687477 L12.6934546,86.7225951 L11.9897555,86.3541833 L11.9896832,86.3541833 Z M42.0833067,86.7854242 C38.6391025,85.0366683 35.7000626,82.4220736 33.1157399,79.6408567 C31.4330259,77.6625901 34.3821842,74.832148 34.8073291,78.1974966 C36.5071312,82.2039257 41.0868601,83.3843087 43.2687832,86.7772924 L42.9441867,86.8971711 L42.0833067,86.7854242 Z M42.3330484,83.5801764 C39.2135883,81.7233291 36.6272644,79.126344 35.171296,75.7765568 C33.0534117,71.8060074 31.7472077,67.0892602 31.851549,62.4731081 C33.4388779,61.289273 32.9380759,66.4567434 33.825577,67.49263 C34.1618257,71.3057115 36.0402194,73.5732336 37.2868974,77.1499386 C39.3214337,79.4406997 42.5291661,82.3368056 45.0954568,84.37196 C44.2789304,85.4147271 42.9181378,84.3862377 42.3330484,83.5801764 Z M13.3169751,83.6801154 C11.9317824,80.1531757 12.711581,76.2525704 12.4654687,72.5645991 C14.098511,71.9672674 12.7185081,77.4689665 13.8014513,79.2219492 C13.4380521,80.2510754 16.1698561,85.6137042 13.3169751,83.6801154 Z M47.2735234,83.8278132 C44.2148547,81.8346189 41.3758247,79.7517502 39.4173275,76.9703848 C37.5521552,73.5798901 35.4967244,70.0378119 34.8051582,66.1809685 C37.7352197,65.5595265 36.4290776,72.0851528 39.3299535,72.9105824 C40.1848753,76.9899876 44.1055035,80.8159858 47.9642461,82.6987332 C49.3890923,83.5260016 48.8133486,84.6573731 47.2735234,83.8278132 Z M32.3809261,82.7738302 C29.7484965,81.5804059 26.9218811,76.0311423 29.1875623,74.3886316 C30.8834416,76.7328819 30.2322087,80.2810644 33.2157042,81.9398964 C33.2043337,82.1801123 32.6533999,83.4912395 32.3809261,82.7738302 Z M7.99150873,82.3691945 C6.90281239,79.1529417 8.50800074,75.7212955 8.1503015,72.4766671 C8.01094618,68.4572486 9.53554875,64.542324 10.7466921,60.6162623 C11.8616808,57.8827745 10.2151738,57.7880642 9.55878373,60.3089816 C8.56304648,63.4352823 7.43439422,66.4635794 6.95604564,69.7914367 C5.17595267,72.0393724 9.20347804,75.3083975 5.80086671,77.0871171 C2.18278137,73.485021 7.23849037,68.5989267 7.46322595,64.3898844 C8.19604587,60.9766611 9.28208616,57.4087438 12.3898573,55.4532384 C13.6878026,53.9809253 16.7157904,50.0160928 17.6350195,50.902649 C14.7506271,54.0256668 11.4699188,57.028993 11.3048671,61.6068775 C10.3528154,65.7427329 8.98951566,69.7056017 8.97727213,74.165206 C8.76736241,76.9100789 8.89727772,79.7454707 7.99150873,82.3691945 Z M27.3272773,81.1332712 C25.1638758,78.2883347 24.9395973,74.7485823 25.0841631,71.3511728 C24.6667754,69.4618758 25.3088323,63.0424234 25.8162677,68.1634144 C26.0872491,71.8803074 26.2124142,76.1200333 28.1326972,79.2210973 C28.7494204,79.8340395 28.5562788,83.3218063 27.3272773,81.1332712 Z M48.963334,81.7200402 C50.0155254,78.440715 44.8365214,76.4061706 43.8677753,73.2670645 C42.0061616,70.236035 40.1183544,67.3735439 39.2309242,63.9141989 C37.6019611,61.212193 34.9530494,55.8994039 31.1920251,58.410321 C27.3787866,60.813724 28.3856952,65.8883276 28.5526817,69.7006461 C29.432685,71.2129098 29.1953977,75.1677049 27.4570334,72.3435839 C27.3838922,68.741602 26.833808,65.0499531 27.6131185,61.485724 C28.5366201,58.5937618 32.027834,55.4103772 35.1829836,56.8125637 C38.8630136,59.762466 40.5336537,64.3337846 42.5093836,68.4856332 C44.4621999,72.0604949 46.5135471,75.5282671 49.3282198,78.5152867 C50.7684597,79.2663523 51.1362139,82.1833538 48.963334,81.7200402 Z M47.199785,80.9880119 C41.8851686,77.4802743 39.5316103,71.1489173 37.0797853,65.5376722 C36.6595102,62.5231822 32.5720015,57.5217345 30.7896861,62.3534922 C29.8071996,66.3287435 32.0020241,70.0180636 31.9635164,73.7734692 C29.9895607,74.4716067 30.5908459,68.9116602 29.6855356,67.2710759 C29.006502,63.9843343 30.4086353,57.2950288 34.8856363,59.7733197 C38.1889087,62.534864 38.3716974,67.1611916 40.7226291,70.5769512 C42.5951502,74.5789427 45.3171883,78.2192782 48.6234485,81.0958451 C48.3600268,81.5447904 47.5613674,80.967664 47.199785,80.9880119 Z M51.4023861,78.3438067 C49.1526722,75.3112262 46.0497943,72.935497 44.6221977,69.3222147 C42.1209074,65.5147018 40.9613839,60.8446539 37.8351898,57.4791301 C35.2843105,55.7590898 31.5828993,51.964872 28.607813,54.9539711 C26.038915,56.0382531 23.6142714,61.0478386 22.3308407,61.0851785 C23.1709486,57.3105368 26.6074546,54.3799494 30.0127514,52.9163945 C33.5577546,52.0976882 36.1422469,55.2597245 38.9623526,56.8018139 C43.894945,62.3176348 45.1040665,70.3889244 50.6764327,75.4635754 C51.044358,76.1641855 54.5128944,80.5226309 51.4023861,78.3438067 Z M22.7344038,78.2301749 C21.0581743,74.6943778 20.2667884,70.8624311 20.4340803,66.8916041 C19.3900443,64.8729462 23.2996428,59.8614952 21.9020444,64.3068069 C21.1719749,67.4152385 21.2308993,70.9122381 21.8358892,73.9854311 C25.1129446,75.1646772 20.6072963,67.3008942 23.6421106,68.3733089 C23.6485111,71.0545039 24.0464302,74.6610881 23.7816415,76.8609191 C24.7070558,77.6626867 23.4715978,78.2485592 22.7344038,78.2301749 Z M19.059295,76.2676791 C18.3311,72.1546843 17.4944962,67.9061217 18.4032914,63.6781786 C19.7120586,59.0906145 22.676323,54.8659543 26.583379,52.1882695 C29.7066366,50.5984658 33.5970174,48.9679783 36.8307927,51.2835397 C38.7654237,52.2690761 42.4147934,55.725855 41.0699017,57.258324 C39.3525232,55.1609447 36.5440299,53.6554459 34.5121968,52.6981856 C35.9206776,52.6306103 38.5729105,53.3843134 35.7460104,51.8799261 C33.0470849,50.6287634 29.8718004,51.4783788 27.4188398,53.0164952 C24.6482494,54.3002247 22.7906544,57.1158728 21.2580911,59.7091282 C18.7029703,62.7787741 19.0786839,67.5707978 19.5790006,71.4576673 C19.1766881,72.5205092 21.6133967,78.0045497 19.059295,76.2676791 Z M31.6041064,76.2410147 C30.487829,72.9603151 35.6002841,76.5011659 31.9724521,76.5449857 C31.8496701,76.443662 31.7268883,76.3423383 31.6041064,76.2410147 Z M52.3860553,75.3976713 C49.990854,72.1755145 47.6493299,68.8912292 45.5350057,65.5414717 C44.680923,63.5448327 41.344191,58.9409234 42.71294,58.0227694 C45.1090866,60.6777273 46.3857392,64.1577719 48.2927597,67.3335013 C49.8169714,70.2433163 52.2852504,72.5573313 53.9808082,75.3184215 C53.5909796,75.7196467 52.8720771,75.3907179 52.3860553,75.3976713 Z M2.84059898,73.1782433 C1.93491847,70.5259807 6.11250009,65.5629282 4.30427443,64.7139732 C3.74049397,66.6003212 1.35360892,69.1694961 2.73282583,65.5203432 C5.3190421,63.4248472 6.19768567,59.8656878 8.24365436,57.6470956 C6.89939092,62.1127775 5.25029576,66.5285219 4.17660223,71.0937614 C3.89458075,71.8656543 3.60493324,72.7502544 2.84059898,73.1782433 Z M54.1625483,72.584579 C52.6659502,69.3926546 49.663709,67.134447 48.4006788,63.9609589 C45.359144,61.3823001 44.9621864,57.0989593 42.0242746,54.4193197 C39.4735635,51.6756402 36.4671693,48.5143652 32.3557607,48.9806708 C28.4818339,49.6667495 24.1563772,51.5625264 22.052894,55.0151763 C20.6955759,57.3253562 19.0666969,55.7941472 21.1643371,54.2042174 C24.1097436,50.2866717 29.1079941,48.4979504 33.822974,48.0507993 C38.2856948,48.7192373 41.8951631,51.6657319 44.473625,55.2484865 C46.8025841,58.2009623 48.1332383,61.8000752 50.6338443,64.6463059 C50.9504285,67.0674119 56.5750973,70.6259538 54.1625483,72.584579 Z M23.0409109,66.4539547 C22.7153277,65.1465705 23.9037051,59.423816 24.0638443,63.6116378 C23.9279503,64.1758105 23.9925511,67.1292955 23.0409109,66.4539547 Z M57.1176043,65.0994158 C53.3058021,60.0730994 49.3531183,55.1489839 45.3066421,50.3218597 C42.3384373,47.7274318 39.0053141,44.8916972 34.8507787,44.8403852 C31.4266667,43.5860183 27.7688968,43.8220593 24.4593832,45.1959531 C20.8895464,46.563995 17.5826505,48.4345218 14.7883488,51.0902218 C12.6430573,52.3391285 10.2504738,57.3784357 8.79057673,56.3538392 C12.1708085,51.8304665 16.4673744,47.8641275 21.5388103,45.3681455 C27.479733,43.003583 34.3005646,42.5170483 40.2683723,45.0713133 C43.2856339,46.3796473 45.6014662,49.0012131 47.9135819,51.2353401 C50.786946,54.0898598 52.8127575,57.5615605 55.424589,60.5656093 C55.4642515,61.9847508 60.7632059,65.7674248 57.1176043,65.0994158 Z M34.4799054,64.7500695 C33.1046305,62.8592498 34.1735192,60.8820236 35.0506113,63.7315046 C35.384173,64.0973473 35.2300936,65.7430089 34.4799054,64.7500695 Z M1.62368035,63.9107927 C5.44615536,59.3065569 7.03254336,52.849864 12.2935652,49.4927153 C12.8633451,51.3992761 7.34771028,54.4468687 6.55541293,57.5435382 C5.26491809,59.833906 4.67732453,63.3808819 1.62368035,63.9107927 Z M25.6459556,63.2918114 C24.3811777,61.6423549 27.8377021,55.5941357 27.8074103,58.6401923 C26.8971095,60.0976905 26.7499556,61.9517298 25.6459556,63.2918114 Z M14.7794544,62.1886375 C14.8704094,60.3046998 17.5547966,55.2101773 16.3046513,59.8473852 C16.0317499,60.6253112 15.9882235,62.3407535 14.7794544,62.1886375 Z M57.8457108,61.2776519 C53.7000373,55.4652838 49.2168526,49.6391011 43.3864595,45.4493321 C38.5096561,42.3967348 32.3977385,41.3485074 26.8598244,42.9134574 C24.8335527,43.3634861 22.5713268,42.7268241 25.7125398,42.1851246 C29.1146586,41.9138229 32.4363685,40.7755232 35.8592992,41.3893249 C41.5179394,42.4072901 46.9179346,45.5233561 50.4359377,50.1422985 C53.4287786,53.4981841 56.5669993,56.7926329 58.9988133,60.5856233 C59.7616403,61.6934026 58.3996162,61.6801104 57.8457108,61.2776519 Z M1.88751794,61.0855332 C1.9063463,57.3314546 5.15412609,54.4911546 7.02888889,51.4896926 C10.492799,46.9974279 14.9530111,43.2267163 20.0646183,40.7981938 C22.5129466,41.0173792 16.8496462,43.7248171 15.4899183,44.5970303 C12.5499405,46.4629592 10.690179,49.5531266 7.90530113,51.6039211 C6.30267297,54.5045552 3.98956174,57.0101649 2.90801213,60.1687922 C2.80955215,60.5895667 2.42402992,61.2185646 1.88751794,61.0855332 Z M59.3242386,58.1882163 C55.5615198,53.0291639 51.1558018,48.2367826 46.1192648,44.3217496 C42.8462531,42.7297346 39.6808554,40.4215152 35.8924683,40.3202717 C33.4803411,38.7387111 30.2232614,41.7184434 28.6517287,40.1318069 C31.6586478,37.7918949 35.805774,39.2545283 39.3529908,40.002259 C43.6557419,41.5388333 48.0036268,43.4682798 51.1041436,46.9939579 C54.7858564,49.6336928 56.7440056,53.989054 59.9451177,57.1084742 C60.4080565,57.611596 60.195181,58.6115465 59.3242386,58.1882163 Z M1.07109485,57.0011086 C0.478627191,55.0920885 5.7070788,50.5237219 3.47557537,54.1387688 C2.50174728,54.9014718 2.66664412,57.158624 1.07109485,57.0011086 Z M28.4240097,56.6106658 C29.3773665,54.7132623 34.8535777,54.7808822 30.6739742,56.3525628 C30.1375862,56.5375917 28.4653003,57.9802542 28.4240097,56.6106658 Z M59.9196647,55.3246313 C58.6269061,52.7020222 55.1938438,49.3518164 54.5332432,47.7329009 C57.3543665,48.5749323 60.3347501,51.4277556 61.9713968,53.3091198 C60.7459732,52.2795157 57.3516309,51.2438784 59.9164114,53.5914177 C60.6645615,54.3786196 62.4024805,57.2049209 59.9196706,55.3246313 L59.9196647,55.3246313 Z M0.768810047,53.242101 C-0.890854784,51.1430267 5.57922669,48.2483382 2.56080587,51.4667164 C2.15415611,52.0407498 1.88143304,54.4075979 0.768810047,53.242101 Z M4.68957839,51.9421288 C3.77398891,50.0384309 8.20001153,48.5024355 5.84948541,51.2197103 C5.65359632,51.6002997 5.20635207,52.3019873 4.68957839,51.9421288 Z M61.2100873,50.2658771 C56.8956029,47.6714092 54.5752299,42.8710088 50.2223927,40.3240058 C47.6474083,37.890746 44.6867144,36.3002106 41.3081505,35.2815284 C37.4294588,33.7958105 33.2991023,33.4280057 29.1720788,33.6603926 C25.8062393,33.6821267 22.3064643,34.2582365 19.1365729,34.9410961 C14.0253433,36.7418435 10.204057,40.7418981 5.88582076,43.8537565 C2.74434526,44.5161361 7.87082104,40.6543697 9.03023696,40.1182284 C11.8356275,37.2333784 15.6311467,35.5760988 19.1531272,33.8213573 C22.6638965,33.5821729 26.0970696,32.9122997 29.5877658,32.4791235 C33.0085743,31.9519941 36.1805865,33.1419114 39.513071,33.5688451 C42.5414244,34.4594249 45.6429941,35.2897804 48.1297328,37.4367396 C51.5737453,39.197863 54.1637813,42.1181014 57.1190673,44.5409424 C56.9257811,46.8865373 64.2341992,49.5868734 61.2100873,50.2658771 Z M18.1678372,50.163332 C20.0064962,47.6764049 23.3936416,47.3185721 25.9391498,45.8650901 C27.5627595,44.3973958 34.4232816,44.8178631 29.4863269,45.8671383 C25.5377016,46.3041985 22.3267365,48.8429851 18.6453643,50.0726053 L18.1678372,50.163332 Z M3.65724033,49.2858826 C4.98825739,44.822884 9.6557306,42.7932047 13.013506,40.0853364 C16.1562543,36.9167282 20.5680217,35.366096 24.9723077,35.3366324 C29.4627424,34.0458293 34.2503708,34.5560987 38.6899657,35.7639105 C40.1967576,36.3587504 45.7948953,37.3203116 44.5837209,38.6393732 C41.4313484,37.8363248 38.4700659,36.2619193 35.2087802,35.9795219 C31.3281522,34.5382754 27.2645495,35.4869348 23.412181,36.4258805 C17.3386987,37.0135281 12.7521327,41.3752178 8.10283754,44.8691721 C6.59787742,46.2627236 5.80794708,48.7835534 3.65724033,49.2858826 Z M6.7173853,48.6768764 C8.67691484,45.1092722 12.500549,43.2599259 15.4546065,40.6611583 C19.9874864,37.7795646 25.4051538,36.5854753 30.7082523,36.4194615 C34.0928803,36.3065821 37.328505,37.4039174 40.4892307,38.2788022 C42.5503969,38.5181855 45.6788827,41.3875112 46.7791662,40.6895918 C43.896669,36.5564436 50.8397574,42.597101 51.9510989,43.721028 C53.8775729,44.5077239 56.0026496,48.2304971 52.6446147,46.5829239 C50.4799773,43.4405201 47.2675919,41.7692493 43.7425527,40.6149162 C38.2132173,37.5382177 31.6546616,37.2957072 25.4983577,37.821685 C20.2287335,38.5104767 15.5536165,41.4074464 11.7913254,45.0712168 C9.51306148,45.1636563 8.8654124,48.9626902 6.7173853,48.6768764 Z M13.009732,48.9796037 C14.4370235,45.64986 19.0718041,44.5913222 21.1783371,42.5345674 C21.3326981,44.4842519 24.0924888,43.0712622 21.4035843,44.1870931 C18.124075,44.9583093 15.9558081,48.1374921 13.009732,48.9796037 Z M61.505041,46.5554744 C58.1074262,43.6326061 53.6977043,39.8732216 51.2264122,37.0968489 C55.146225,36.9412183 57.2111459,41.5202456 59.9757413,43.8399478 C61.152039,44.1182191 64.8630745,48.936186 61.505041,46.5554744 Z M0.474198461,46.604946 C-0.768668727,44.465262 4.38720509,44.1078627 1.23829822,46.0897892 L0.886111671,46.3366304 L0.474198461,46.604946 Z M2.14560245,44.0277432 C-0.176403107,41.9500543 6.22384364,40.291614 6.93260713,38.0117734 C8.55230131,36.1006473 11.4727871,36.8155633 8.43719562,38.7939871 C5.94368626,39.7902229 3.29208024,43.4963734 2.14560245,44.0277432 Z M62.6241604,43.6613602 C59.8151361,41.4332471 57.6933628,38.447158 54.7307119,36.3912431 C52.6788824,33.3118864 49.2075262,32.4692183 46.1960972,30.7776531 C44.2724075,28.6288297 39.395178,29.1968969 38.7184893,26.8851631 C42.2582954,27.3632974 45.5162304,28.9548851 48.6363955,30.6333764 C53.0434216,32.7879107 56.5870312,36.3157038 60.2448822,39.5147818 C60.9486786,39.8339759 65.5925497,46.2576345 62.6241604,43.6613602 Z M21.6125488,42.0740084 C22.7078477,40.3162214 28.6758441,40.333929 27.3376051,40.879796 C25.3885317,41.0873693 23.6355937,42.5058814 21.6125488,42.0740084 Z M1.55569499,40.0582891 C1.46835477,37.8586763 8.25274925,35.5216479 4.53825385,38.3661717 C3.61088982,38.6537978 2.43853575,40.6545968 1.55569499,40.0582891 Z M21.6125488,40.3296442 C23.2853007,38.9458361 29.1712838,37.5635938 28.4714131,38.9378676 C26.25948,39.7121975 23.9142423,39.9668424 21.6125488,40.3296442 Z M62.4267714,39.4521146 C59.4288455,35.5116818 55.144383,32.7735871 50.9419117,30.2974097 C45.7771258,27.5616452 39.9676286,24.5121201 33.9674763,26.2360964 C30.4077239,27.1182506 26.5131505,26.3885182 23.1610559,28.1518768 C21.693403,28.3900965 16.6566182,31.0776213 17.386959,29.2212163 C21.0681557,27.7640016 24.6634292,25.7770498 28.7271985,25.794324 C32.3822209,25.497511 36.0079072,24.4461314 39.674744,24.7898378 C43.5753139,25.5677831 47.3456367,26.8850444 50.7858782,28.9176119 C54.6902309,30.4971957 57.7115083,33.5962872 61.1215687,35.9651034 C61.827545,36.3036346 64.7019575,40.2764697 62.4267714,39.4521146 Z M1.06717786,37.9999046 C1.7828949,34.2236526 6.22962768,33.1072399 9.0249455,31.2093985 C13.5566869,28.4038873 18.4317633,26.184878 23.402356,24.3013307 C26.7521898,23.4271776 30.3445375,22.9146329 33.7610662,23.5069008 C32.3682239,24.8516858 27.7849069,24.0342721 25.1802236,24.9738812 C18.7796273,26.7799331 12.885766,30.0795942 7.17710018,33.4137607 C5.29563014,35.0849499 2.55871908,36.4925772 1.06717786,37.9999046 Z M48.1952538,36.0617994 C46.0593361,32.8098347 53.1232523,38.7654378 48.5637381,36.4336249 C48.440909,36.3096825 48.3180814,36.1857417 48.1952538,36.0617994 Z M6.12747784,36.3285047 C8.33923116,33.5678107 11.7495304,32.2465229 14.764257,30.6769409 C18.3569468,30.7925482 12.1577582,32.945821 11.1029757,33.8364988 C9.52809527,34.6417066 7.90019401,36.4760095 6.12747784,36.3285047 Z M10.1889759,36.324349 C12.5767533,34.0415415 15.8797941,33.1332067 18.5400275,31.2313819 C22.2425243,29.571937 26.0348844,28.0274462 30.1573436,27.9528122 C33.5228984,26.7985237 36.7006253,27.9174684 39.9013894,29.1002126 C41.4084171,29.4458292 46.8499345,31.6725192 42.5827459,30.7785051 C36.5038439,28.4559161 29.7450544,28.5644424 23.5037848,30.1425079 C19.5072664,31.7146916 15.8571785,33.9823235 12.0976482,36.0010825 C11.4892146,36.2261094 10.8394699,36.3585382 10.1889759,36.324349 Z M52.3646283,36.1698567 C49.8152769,34.4258858 46.8285519,33.9016995 43.8749205,33.4564258 C39.1519739,32.104321 34.2091187,30.963013 29.2768094,31.3066141 C26.4901558,31.1798192 23.386815,33.2654188 20.8967034,32.4846788 C24.1457869,31.1283708 27.7350863,30.4944366 31.2118504,30.225002 C36.4413462,29.8536456 41.3991099,31.7509096 46.4396819,32.8107223 C47.5656928,33.0940977 54.0092034,35.3255753 52.3646283,36.1698567 Z M1.06410592,34.583244 C2.21218678,30.5541013 7.2162258,29.8290812 10.2993536,27.7784559 C15.5704156,25.6164607 20.3233281,22.0344838 26.123695,21.34907 C27.6649758,20.7070041 34.0319134,21.1920324 29.2465162,22.0047264 C25.8327881,22.328603 22.4741441,22.9712121 19.3641386,24.5471374 C15.1903928,25.732905 11.8691828,28.7527468 7.82439974,30.2657986 C5.45668226,31.5331193 3.34034646,33.1329648 1.06410592,34.583244 Z M62.2033794,34.0774078 C58.1298324,31.4369115 53.9939159,28.9314813 49.6779789,26.7189756 C46.673089,25.049385 43.2216703,24.5285022 40.0864994,23.2142509 C37.470888,23.8121645 33.586815,22.4708806 32.2904062,21.4664687 C35.7521086,20.7477369 39.610074,22.2945178 43.0990124,23.0389967 C46.1763531,24.2361523 49.423012,25.2606345 52.2238086,26.9520587 C53.0596883,28.1765836 57.7558945,29.8514238 55.0557568,27.199228 C49.6829607,24.0298419 43.9543841,21.2215851 37.7133975,20.2722043 C31.2117103,19.3389415 24.3179765,19.4512421 18.3291577,22.4547003 C16.6999248,22.8239463 12.6447784,26.2664801 12.3798318,23.7778388 C15.0798546,22.4243551 18.5563297,21.2044014 21.8462111,20.2334766 C27.8887895,18.1878173 34.6050896,17.8294665 40.686391,19.9028322 C46.528463,21.1577616 51.9343351,23.8489524 56.7222365,27.4074349 C57.8812261,30.3614602 63.5394461,31.7868901 63.0520896,34.6523985 L62.7433777,34.503218 L62.2033794,34.0774078 Z M62.3374049,30.1473343 C59.2734697,27.7558447 56.3556945,25.1827072 52.9783858,23.237852 C48.6061274,20.0847859 43.1967202,19.2848127 38.139088,17.8352534 C34.2227809,17.1639079 30.0777961,16.5939826 26.1686888,17.6457319 C22.5321084,18.2721428 19.0395125,19.8274265 15.3681791,20.4903686 C12.5631824,21.6904389 9.20005215,24.5605468 6.59948049,24.5105588 C10.0621061,21.8181555 13.9215107,19.4965595 18.2823102,18.4082316 C21.9092206,17.1739334 25.7182442,17.1873309 29.3446385,15.9191761 C32.7644161,16.2856585 36.3606498,16.2804521 39.7262001,17.1481521 C46.469394,18.5658865 53.0799782,21.3337238 58.6031344,25.5824392 C60.2473362,25.7673924 65.0912478,31.7065124 62.3796511,30.1893702 L62.3374049,30.1473314 L62.3374049,30.1473343 Z M1.05170755,30.5463733 C2.83210136,27.5258102 7.05928092,27.4678655 9.60218912,25.3141993 C12.1190736,23.4569543 12.4669434,26.1354911 9.79632914,26.5219161 C7.00588101,28.269449 3.87938178,28.8588421 1.05170755,30.5463733 Z M2.24392086,25.3814452 C2.60758995,23.3536314 9.48880006,20.9553177 5.60983845,23.9363354 C4.68719517,24.7398186 3.52692387,25.5200125 2.24392086,25.3814452 Z M61.3917832,25.1835546 C58.0985761,24.0489595 55.925888,20.9636898 52.5962231,19.8287844 C46.7704976,16.7458153 40.193485,15.6589136 33.7120228,15.03163 C29.4831104,13.8458476 25.556061,15.6566859 21.3676915,15.7497102 C17.7168559,16.7034247 14.285199,18.3829044 10.6821725,19.4891178 C10.4982084,16.93161 15.9752676,17.3611767 17.8928179,15.590007 C20.8419615,14.2219905 24.3826569,15.4298037 27.346383,13.8726456 C30.5097868,13.1331935 33.6703709,13.9741593 36.7986811,14.1649393 C39.911937,15.7500411 43.3142312,15.2440921 46.6009213,15.966877 C51.4363426,17.4456818 55.9618871,19.9624228 59.7379939,23.308703 C64.2390999,25.4021166 57.0733449,19.6919106 55.7867362,18.5377439 C52.1985075,15.3228639 47.3350301,14.5033754 42.8687036,13.352646 C37.8687172,13.6936632 32.8764941,10.9689111 27.9623201,12.8159808 C26.3298249,11.8576357 21.1837951,15.4311068 21.9450574,13.0267212 C25.4836734,11.6324261 29.3993597,11.2574038 33.1720303,11.1792776 C36.8940604,11.3557087 40.3298229,12.9717702 44.1050449,12.718553 C49.3848215,12.7627128 54.1417306,15.4414499 57.9371627,18.9507414 C59.2073308,19.3738193 65.9632489,26.5525195 61.3917832,25.1835546 Z M3.42373578,21.9678717 C4.9605568,18.5494065 12.6316692,18.553801 6.40226705,21.0359729 C5.42263575,21.3890415 4.40911278,21.6330316 3.42373578,21.9678717 Z M4.53472768,19.0688109 C6.48361529,15.8092309 11.2434518,15.4596398 14.0482892,13.1740688 C14.3917644,13.6909086 13.4562139,15.6770071 12.7299242,16.1181976 C10.3301999,15.6729984 6.87278757,18.4346451 4.53472768,19.0688109 Z M59.3242667,18.5611432 C58.2246703,15.0077825 53.8856797,14.4519078 51.321293,12.3061863 C48.1700338,11.3747446 45.1876608,10.0680877 42.2402221,8.62713793 C38.9463779,7.38087895 35.3653682,7.59822247 31.9362656,6.97711589 C28.5568333,7.41041078 25.1826363,7.62574327 21.8363036,8.54723218 C17.8956111,9.53752383 14.0507787,11.2334984 10.7058293,13.4269194 C8.29674898,11.4483991 15.1477794,10.1826827 16.8403566,8.97715803 C20.6256852,7.72804649 24.4156652,6.39046559 28.4495571,6.17891475 C32.5439692,5.52995641 36.6018114,6.40797721 40.6190841,6.9837115 C46.1939854,8.87330979 51.7255624,11.0667782 56.7348841,14.2010059 C58.1454428,14.4330812 63.1052712,18.9282356 59.3242667,18.5611432 Z M14.7377731,15.4709684 C15.1688863,12.7544934 20.0856868,15.1192459 16.0065372,15.0683808 C15.5145765,14.8492652 15.1285897,16.0897477 14.7377731,15.4709684 Z M6.31182392,15.1413822 C5.35710441,11.7641024 12.1602638,14.0424781 7.54336782,14.673214 C7.1783272,14.8834543 6.78954868,15.5048087 6.31182392,15.1413822 Z M15.9592694,13.3597373 C17.7446391,11.0609024 21.7826088,10.1653967 24.4526774,9.80498302 C24.2373141,11.9090604 19.6649884,11.4027982 17.9557979,13.2789871 C17.3158929,13.4950898 16.6138809,13.5388444 15.9592694,13.3597373 Z M57.1705455,12.2752697 C52.5638888,9.83809614 47.8152413,7.71056011 42.857988,6.09622323 C39.4471179,4.73838354 35.5857061,4.79874883 31.9557901,4.60225183 C28.3377622,5.23814214 24.5748384,4.5840115 21.0782254,5.76262983 C19.0449544,6.08998976 13.7000594,9.63083006 13.4340657,7.27945732 C16.8506668,6.63388583 19.6296736,4.01545757 23.2316723,4.0051189 C27.1409551,3.60685467 31.0667538,3.5300894 34.954011,3.21586727 C38.2998334,3.47383524 41.4474041,3.92785051 44.4607016,5.44295488 C48.2274274,6.7177899 51.7713054,8.61151713 55.6050756,9.69095343 C55.946374,10.3342928 60.572623,13.3754145 57.1705455,12.2752697 Z M7.04580006,11.87602 C7.23140707,9.22077713 14.8868102,7.33499611 10.5798531,10.3938729 C9.46798517,11.0353615 8.25300882,11.4589173 7.04580006,11.87602 Z M43.7599093,11.4325779 C39.0093785,10.3539311 34.1772872,9.66231803 29.2982246,10.041116 C27.5599531,10.3754337 24.5678804,9.27399767 27.9716804,8.97209406 C31.9813507,8.78310693 36.0995818,8.60294016 40.0602013,9.33989887 C40.7127997,9.23979666 46.3939007,11.5854643 43.7599093,11.4325779 Z M53.4280325,7.3736214 C49.5807622,5.25783103 45.3194358,4.16296241 41.2457192,2.61197251 C39.5863759,2.36396177 32.7201008,1.77058377 37.6414465,1.06526886 C41.9643621,1.15197652 45.8015524,3.52496905 49.9427368,4.53340753 C50.9118766,4.49954937 57.9740835,8.51457767 53.4280325,7.3736214 Z M11.4162534,6.47044258 C13.1574435,3.80944859 16.7724775,3.52658233 19.3746847,2.07819248 C22.8762514,1.56853898 26.6571351,-0.353912699 29.9217774,0.361001765 C26.0564898,2.37308936 21.762428,2.26595816 17.8600353,3.88513339 C15.7454279,4.82979599 13.6675983,5.88017094 11.4162534,6.47044258 Z" id="Shape" fill="#ABABAB" fill-rule="nonzero"></path>
                                </g>
                            </g>
                        </g>
                    </g>
                </g>
                <path d="M0,73 L264,73" id="Page-1" stroke="#FF0000" stroke-width="12" stroke-linecap="round"></path>
                <path d="M310.837769,505.156296 C379.396987,488.149703 378.765511,398.422485 356.809262,345.10348 C343.20764,312.071294 239.825359,398.52595 184.450606,428.044155 C198.082845,484.283174 255.00376,519.005289 310.837769,505.156296" id="Fill-23" fill="#FFD7B6" fill-rule="nonzero"></path>
                <path d="M318.170934,421.692165 L282.375781,307.202304 C268.701443,263.474895 321.006838,229.059344 332.572426,267.329928 L363.83243,366.142912 C376.905908,393.526671 357.291863,427.704636 318.170934,421.692165" id="Fill-24" fill="#FFD7B6" fill-rule="nonzero"></path>
                <path d="M305.500835,317.008495 L241.962812,261.451578 C207.495673,231.312583 220.661003,163.542955 250.738422,189.842246 L325.225866,254.975431 C341.552406,269.245948 323.251067,298.718168 305.500835,317.008495" id="Fill-25" fill="#FFD7B6" fill-rule="nonzero"></path>
                <path d="M247.093463,485.592966 C341.072484,511.24081 364.869582,447.138444 297.167641,349.60536 C227.238309,357.844246 215.397167,445.866206 247.093463,485.592966" id="Fill-26" fill="#FFD7B6" fill-rule="nonzero"></path>
                <path d="M247.093463,485.592966 C232.940734,441.988182 244.249905,369.884516 297.167641,349.60536 C227.238309,357.844246 215.397167,445.866206 247.093463,485.592966" id="Fill-27" fill="#FBB88B" fill-rule="nonzero"></path>
                <path d="M150.375365,535.591125 C168.979048,544.508282 202.918042,553.425439 209.408856,570.159958 C215.899669,586.890645 260.631172,695.701422 260.631172,695.701422 L444.662577,695.701422 C444.662577,695.701422 362.876795,502.16424 361.927667,492.396369 C360.974711,482.628499 376.620021,416.315046 366.964171,376.802881" id="Fill-29" fill="#FFD7B6" fill-rule="nonzero"></path>
            </g>
        </g>
    </g>
</svg>